<svg width="1440" height="1024" viewBox="0 0 1440 1024" fill="none" xmlns="http://www.w3.org/2000/svg">
    <g opacity=".32" clip-path="url(#sd3243hzga)" fill="#DFE3E8">
        <path d="M10.44 1019.92h-1.8v39.96h1.8v-39.96zM10.44 369.04h-1.8v38.16h1.8v-38.16zM10.44 978.16h-1.8v39.96h1.8v-39.96zM10.44 570.64h-1.8v40.32h1.8v-40.32zM10.44 815.08h-1.8v40.32h1.8v-40.32zM10.44 165.28h-1.8v37.08h1.8v-37.08zM10.44 692.32h-1.8v40.32h1.8v-40.32zM10.44 612.76h-1.8v38.88h1.8v-38.88zM10.44 447.88h-1.8v40.32h1.8v-40.32zM10.44 857.2h-1.8v38.16h1.8V857.2zM10.44 409h-1.8v37.08h1.8V409zM10.44 653.44h-1.8v37.08h1.8v-37.08zM10.44 246.28h-1.8v39.96h1.8v-39.96zM10.44 936.04h-1.8v40.32h1.8v-40.32zM10.44 734.44h-1.8v39.96h1.8v-39.96zM10.44 326.92h-1.8v40.32h1.8v-40.32zM10.44 288.04h-1.8v37.08h1.8v-37.08zM10.44 204.16h-1.8v40.32h1.8v-40.32zM10.44 122.44h-1.8v41.04h1.8v-41.04zM10.44-.32h-1.8v39.96h1.8V-.32zM10.44 80.32h-1.8v40.32h1.8V80.32zM10.44 41.44h-1.8v37.08h1.8V41.44zM10.44 490h-1.8v39.96h1.8V490zM10.44 776.2h-1.8v37.08h1.8V776.2zM10.44 531.76h-1.8v37.08h1.8v-37.08zM10.44 897.16h-1.8v37.08h1.8v-37.08zM49.32 531.76h-1.8v37.08h1.8v-37.08zM49.32 815.08h-1.8v40.32h1.8v-40.32zM49.32 41.44h-1.8v37.08h1.8V41.44zM49.32 122.44h-1.8v41.04h1.8v-41.04zM49.32-.32h-1.8v39.96h1.8V-.32zM49.32 776.2h-1.8v37.08h1.8V776.2zM49.32 369.04h-1.8v38.16h1.8v-38.16zM49.32 80.32h-1.8v40.32h1.8V80.32zM49.32 1019.92h-1.8v39.96h1.8v-39.96zM49.32 978.16h-1.8v39.96h1.8v-39.96zM49.32 570.64h-1.8v40.32h1.8v-40.32zM49.32 734.44h-1.8v39.96h1.8v-39.96zM49.32 447.88h-1.8v40.32h1.8v-40.32zM49.32 165.28h-1.8v37.08h1.8v-37.08zM49.32 612.76h-1.8v38.88h1.8v-38.88zM49.32 326.92h-1.8v40.32h1.8v-40.32zM49.32 288.04h-1.8v37.08h1.8v-37.08zM49.32 857.2h-1.8v38.16h1.8V857.2zM49.32 409h-1.8v37.08h1.8V409zM49.32 936.04h-1.8v40.32h1.8v-40.32zM49.32 897.16h-1.8v37.08h1.8v-37.08zM49.32 204.16h-1.8v40.32h1.8v-40.32zM49.32 246.28h-1.8v39.96h1.8v-39.96zM49.32 653.44h-1.8v37.08h1.8v-37.08zM49.32 692.32h-1.8v40.32h1.8v-40.32zM49.32 490h-1.8v39.96h1.8V490zM91.44 734.44h-1.8v39.96h1.8v-39.96zM91.44 288.04h-1.8v37.08h1.8v-37.08zM91.44 122.44h-1.8v41.04h1.8v-41.04zM91.44 815.08h-1.8v40.32h1.8v-40.32zM91.44 857.2h-1.8v38.16h1.8V857.2zM91.44 246.28h-1.8v39.96h1.8v-39.96zM91.44 897.16h-1.8v37.08h1.8v-37.08zM91.44 978.16h-1.8v39.96h1.8v-39.96zM91.44 165.28h-1.8v37.08h1.8v-37.08zM91.44 369.04h-1.8v38.16h1.8v-38.16zM91.44 490h-1.8v39.96h1.8V490zM91.44 936.04h-1.8v40.32h1.8v-40.32zM91.44 80.32h-1.8v40.32h1.8V80.32zM91.44 653.44h-1.8v37.08h1.8v-37.08zM91.44 204.16h-1.8v40.32h1.8v-40.32zM91.44 531.76h-1.8v37.08h1.8v-37.08zM91.44 41.44h-1.8v37.08h1.8V41.44zM91.44 1019.92h-1.8v39.96h1.8v-39.96zM91.44 409h-1.8v37.08h1.8V409zM91.44 570.64h-1.8v40.32h1.8v-40.32zM91.44 326.92h-1.8v40.32h1.8v-40.32zM91.44 776.2h-1.8v37.08h1.8V776.2zM91.44 692.32h-1.8v40.32h1.8v-40.32zM91.44 447.88h-1.8v40.32h1.8v-40.32zM91.44-.32h-1.8v39.96h1.8V-.32zM91.44 612.76h-1.8v38.88h1.8v-38.88zM133.2 288.04h-1.8v37.08h1.8v-37.08zM133.2-.32h-1.8v39.96h1.8V-.32zM133.2 369.04h-1.8v38.16h1.8v-38.16zM133.2 1019.92h-1.8v39.96h1.8v-39.96zM133.2 326.92h-1.8v40.32h1.8v-40.32zM133.2 897.16h-1.8v37.08h1.8v-37.08zM133.2 776.2h-1.8v37.08h1.8V776.2zM133.2 122.44h-1.8v41.04h1.8v-41.04zM133.2 447.88h-1.8v40.32h1.8v-40.32zM133.2 204.16h-1.8v40.32h1.8v-40.32zM133.2 409h-1.8v37.08h1.8V409zM133.2 80.32h-1.8v40.32h1.8V80.32zM133.2 815.08h-1.8v40.32h1.8v-40.32zM133.2 165.28h-1.8v37.08h1.8v-37.08zM133.2 570.64h-1.8v40.32h1.8v-40.32zM133.2 653.44h-1.8v37.08h1.8v-37.08zM133.2 531.76h-1.8v37.08h1.8v-37.08zM133.2 936.04h-1.8v40.32h1.8v-40.32zM133.2 692.32h-1.8v40.32h1.8v-40.32zM133.2 612.76h-1.8v38.88h1.8v-38.88zM133.2 246.28h-1.8v39.96h1.8v-39.96zM133.2 857.2h-1.8v38.16h1.8V857.2zM133.2 41.44h-1.8v37.08h1.8V41.44zM133.2 490h-1.8v39.96h1.8V490zM133.2 734.44h-1.8v39.96h1.8v-39.96zM133.2 978.16h-1.8v39.96h1.8v-39.96zM172.08-.32h-1.8v39.96h1.8V-.32zM172.08 570.64h-1.8v40.32h1.8v-40.32zM172.08 369.04h-1.8v38.16h1.8v-38.16zM172.08 815.08h-1.8v40.32h1.8v-40.32zM172.08 897.16h-1.8v37.08h1.8v-37.08zM172.08 80.32h-1.8v40.32h1.8V80.32zM172.08 734.44h-1.8v39.96h1.8v-39.96zM172.08 776.2h-1.8v37.08h1.8V776.2zM172.08 531.76h-1.8v37.08h1.8v-37.08zM172.08 41.44h-1.8v37.08h1.8V41.44zM172.08 288.04h-1.8v37.08h1.8v-37.08zM172.08 204.16h-1.8v40.32h1.8v-40.32zM172.08 165.28h-1.8v37.08h1.8v-37.08zM172.08 857.2h-1.8v38.16h1.8V857.2zM172.08 936.04h-1.8v40.32h1.8v-40.32zM172.08 447.88h-1.8v40.32h1.8v-40.32zM172.08 490h-1.8v39.96h1.8V490zM172.08 1019.92h-1.8v39.96h1.8v-39.96zM172.08 612.76h-1.8v38.88h1.8v-38.88zM172.08 978.16h-1.8v39.96h1.8v-39.96zM172.08 246.28h-1.8v39.96h1.8v-39.96zM172.08 692.32h-1.8v40.32h1.8v-40.32zM172.08 122.44h-1.8v41.04h1.8v-41.04zM172.08 653.44h-1.8v37.08h1.8v-37.08zM172.08 409h-1.8v37.08h1.8V409zM172.08 326.92h-1.8v40.32h1.8v-40.32zM214.2 936.04h-1.8v40.32h1.8v-40.32zM214.2 288.04h-1.8v37.08h1.8v-37.08zM214.2 897.16h-1.8v37.08h1.8v-37.08zM214.2 692.32h-1.8v40.32h1.8v-40.32zM214.2 531.76h-1.8v37.08h1.8v-37.08zM214.2 612.76h-1.8v38.88h1.8v-38.88zM214.2 409h-1.8v37.08h1.8V409zM214.2 570.64h-1.8v40.32h1.8v-40.32zM214.2 204.16h-1.8v40.32h1.8v-40.32zM214.2-.32h-1.8v39.96h1.8V-.32zM214.2 815.08h-1.8v40.32h1.8v-40.32zM214.2 165.28h-1.8v37.08h1.8v-37.08zM214.2 857.2h-1.8v38.16h1.8V857.2zM214.2 1019.92h-1.8v39.96h1.8v-39.96zM214.2 653.44h-1.8v37.08h1.8v-37.08zM214.2 122.44h-1.8v41.04h1.8v-41.04zM214.2 734.44h-1.8v39.96h1.8v-39.96zM214.2 776.2h-1.8v37.08h1.8V776.2zM214.2 978.16h-1.8v39.96h1.8v-39.96zM214.2 41.44h-1.8v37.08h1.8V41.44zM214.2 447.88h-1.8v40.32h1.8v-40.32zM214.2 369.04h-1.8v38.16h1.8v-38.16zM214.2 490h-1.8v39.96h1.8V490zM214.2 80.32h-1.8v40.32h1.8V80.32zM214.2 246.28h-1.8v39.96h1.8v-39.96zM214.2 326.92h-1.8v40.32h1.8v-40.32zM254.16 490h-1.8v39.96h1.8V490zM254.16 978.16h-1.8v39.96h1.8v-39.96zM254.16 1019.92h-1.8v39.96h1.8v-39.96zM254.16 531.76h-1.8v37.08h1.8v-37.08zM254.16 936.04h-1.8v40.32h1.8v-40.32zM254.16 447.88h-1.8v40.32h1.8v-40.32zM254.16 570.64h-1.8v40.32h1.8v-40.32zM254.16 288.04h-1.8v37.08h1.8v-37.08zM254.16 776.2h-1.8v37.08h1.8V776.2zM254.16 165.28h-1.8v37.08h1.8v-37.08zM254.16 653.44h-1.8v37.08h1.8v-37.08zM254.16-.32h-1.8v39.96h1.8V-.32zM254.16 734.44h-1.8v39.96h1.8v-39.96zM254.16 897.16h-1.8v37.08h1.8v-37.08zM254.16 369.04h-1.8v38.16h1.8v-38.16zM254.16 857.2h-1.8v38.16h1.8V857.2zM254.16 612.76h-1.8v38.88h1.8v-38.88zM254.16 122.44h-1.8v41.04h1.8v-41.04zM254.16 409h-1.8v37.08h1.8V409zM254.16 246.28h-1.8v39.96h1.8v-39.96zM254.16 692.32h-1.8v40.32h1.8v-40.32zM254.16 815.08h-1.8v40.32h1.8v-40.32zM254.16 204.16h-1.8v40.32h1.8v-40.32zM254.16 326.92h-1.8v40.32h1.8v-40.32zM254.16 80.32h-1.8v40.32h1.8V80.32zM254.16 41.44h-1.8v37.08h1.8V41.44zM293.04 490h-1.8v39.96h1.8V490zM293.04 612.76h-1.8v38.88h1.8v-38.88zM293.04 776.2h-1.8v37.08h1.8V776.2zM293.04 531.76h-1.8v37.08h1.8v-37.08zM293.04 288.04h-1.8v37.08h1.8v-37.08zM293.04 815.08h-1.8v40.32h1.8v-40.32zM293.04 857.2h-1.8v38.16h1.8V857.2zM293.04 409h-1.8v37.08h1.8V409zM293.04 369.04h-1.8v38.16h1.8v-38.16zM293.04 1019.92h-1.8v39.96h1.8v-39.96zM293.04 122.44h-1.8v41.04h1.8v-41.04zM293.04 897.16h-1.8v37.08h1.8v-37.08zM293.04-.32h-1.8v39.96h1.8V-.32zM293.04 570.64h-1.8v40.32h1.8v-40.32zM293.04 165.28h-1.8v37.08h1.8v-37.08zM293.04 692.32h-1.8v40.32h1.8v-40.32zM293.04 978.16h-1.8v39.96h1.8v-39.96zM293.04 734.44h-1.8v39.96h1.8v-39.96zM293.04 246.28h-1.8v39.96h1.8v-39.96zM293.04 447.88h-1.8v40.32h1.8v-40.32zM293.04 41.44h-1.8v37.08h1.8V41.44zM293.04 204.16h-1.8v40.32h1.8v-40.32zM293.04 80.32h-1.8v40.32h1.8V80.32zM293.04 936.04h-1.8v40.32h1.8v-40.32zM293.04 653.44h-1.8v37.08h1.8v-37.08zM293.04 326.92h-1.8v40.32h1.8v-40.32zM335.16 570.64h-1.8v40.32h1.8v-40.32zM335.16 246.28h-1.8v39.96h1.8v-39.96zM335.16 369.04h-1.8v38.16h1.8v-38.16zM335.16 776.2h-1.8v37.08h1.8V776.2zM335.16 326.92h-1.8v40.32h1.8v-40.32zM335.16 80.32h-1.8v40.32h1.8V80.32zM335.16 204.16h-1.8v40.32h1.8v-40.32zM335.16 531.76h-1.8v37.08h1.8v-37.08zM335.16 288.04h-1.8v37.08h1.8v-37.08zM335.16 653.44h-1.8v37.08h1.8v-37.08zM335.16 490h-1.8v39.96h1.8V490zM335.16 692.32h-1.8v40.32h1.8v-40.32zM335.16 734.44h-1.8v39.96h1.8v-39.96zM335.16 165.28h-1.8v37.08h1.8v-37.08zM335.16 1019.92h-1.8v39.96h1.8v-39.96zM335.16 122.44h-1.8v41.04h1.8v-41.04zM335.16-.32h-1.8v39.96h1.8V-.32zM335.16 978.16h-1.8v39.96h1.8v-39.96zM335.16 897.16h-1.8v37.08h1.8v-37.08zM335.16 936.04h-1.8v40.32h1.8v-40.32zM335.16 447.88h-1.8v40.32h1.8v-40.32zM335.16 815.08h-1.8v40.32h1.8v-40.32zM335.16 612.76h-1.8v38.88h1.8v-38.88zM335.16 41.44h-1.8v37.08h1.8V41.44zM335.16 857.2h-1.8v38.16h1.8V857.2zM335.16 409h-1.8v37.08h1.8V409zM376.92 653.44h-1.8v37.08h1.8v-37.08zM376.92 570.64h-1.8v40.32h1.8v-40.32zM376.92 490h-1.8v39.96h1.8V490zM376.92 612.76h-1.8v38.88h1.8v-38.88zM376.92 447.88h-1.8v40.32h1.8v-40.32zM376.92 531.76h-1.8v37.08h1.8v-37.08zM376.92 246.28h-1.8v39.96h1.8v-39.96zM376.92 204.16h-1.8v40.32h1.8v-40.32zM376.92 734.44h-1.8v39.96h1.8v-39.96zM376.92 326.92h-1.8v40.32h1.8v-40.32zM376.92 165.28h-1.8v37.08h1.8v-37.08zM376.92 936.04h-1.8v40.32h1.8v-40.32zM376.92 288.04h-1.8v37.08h1.8v-37.08zM376.92 692.32h-1.8v40.32h1.8v-40.32zM376.92 897.16h-1.8v37.08h1.8v-37.08zM376.92 1019.92h-1.8v39.96h1.8v-39.96zM376.92 369.04h-1.8v38.16h1.8v-38.16zM376.92 41.44h-1.8v37.08h1.8V41.44zM376.92 122.44h-1.8v41.04h1.8v-41.04zM376.92 857.2h-1.8v38.16h1.8V857.2zM376.92 815.08h-1.8v40.32h1.8v-40.32zM376.92 409h-1.8v37.08h1.8V409zM376.92 80.32h-1.8v40.32h1.8V80.32zM376.92-.32h-1.8v39.96h1.8V-.32zM376.92 776.2h-1.8v37.08h1.8V776.2zM376.92 978.16h-1.8v39.96h1.8v-39.96zM415.8 246.28H414v39.96h1.8v-39.96zM415.8-.32H414v39.96h1.8V-.32zM415.8 531.76H414v37.08h1.8v-37.08zM415.8 936.04H414v40.32h1.8v-40.32zM415.8 612.76H414v38.88h1.8v-38.88zM415.8 326.92H414v40.32h1.8v-40.32zM415.8 80.32H414v40.32h1.8V80.32zM415.8 288.04H414v37.08h1.8v-37.08zM415.8 692.32H414v40.32h1.8v-40.32zM415.8 447.88H414v40.32h1.8v-40.32zM415.8 897.16H414v37.08h1.8v-37.08zM415.8 978.16H414v39.96h1.8v-39.96zM415.8 815.08H414v40.32h1.8v-40.32zM415.8 41.44H414v37.08h1.8V41.44zM415.8 570.64H414v40.32h1.8v-40.32zM415.8 490H414v39.96h1.8V490zM415.8 409H414v37.08h1.8V409zM415.8 857.2H414v38.16h1.8V857.2zM415.8 122.44H414v41.04h1.8v-41.04zM415.8 653.44H414v37.08h1.8v-37.08zM415.8 165.28H414v37.08h1.8v-37.08zM415.8 776.2H414v37.08h1.8V776.2zM415.8 204.16H414v40.32h1.8v-40.32zM415.8 369.04H414v38.16h1.8v-38.16zM415.8 734.44H414v39.96h1.8v-39.96zM415.8 1019.92H414v39.96h1.8v-39.96zM457.92 531.76h-1.8v37.08h1.8v-37.08zM457.92 1019.92h-1.8v39.96h1.8v-39.96zM457.92 653.44h-1.8v37.08h1.8v-37.08zM457.92 490h-1.8v39.96h1.8V490zM457.92 570.64h-1.8v40.32h1.8v-40.32zM457.92 409h-1.8v37.08h1.8V409zM457.92 978.16h-1.8v39.96h1.8v-39.96zM457.92 165.28h-1.8v37.08h1.8v-37.08zM457.92 447.88h-1.8v40.32h1.8v-40.32zM457.92 936.04h-1.8v40.32h1.8v-40.32zM457.92 204.16h-1.8v40.32h1.8v-40.32zM457.92 897.16h-1.8v37.08h1.8v-37.08zM457.92 734.44h-1.8v39.96h1.8v-39.96zM457.92-.32h-1.8v39.96h1.8V-.32zM457.92 326.92h-1.8v40.32h1.8v-40.32zM457.92 246.28h-1.8v39.96h1.8v-39.96zM457.92 80.32h-1.8v40.32h1.8V80.32zM457.92 815.08h-1.8v40.32h1.8v-40.32zM457.92 41.44h-1.8v37.08h1.8V41.44zM457.92 122.44h-1.8v41.04h1.8v-41.04zM457.92 857.2h-1.8v38.16h1.8V857.2zM457.92 692.32h-1.8v40.32h1.8v-40.32zM457.92 776.2h-1.8v37.08h1.8V776.2zM457.92 369.04h-1.8v38.16h1.8v-38.16zM457.92 612.76h-1.8v38.88h1.8v-38.88zM457.92 288.04h-1.8v37.08h1.8v-37.08zM500.76 165.28h-1.8v37.08h1.8v-37.08zM500.76 80.32h-1.8v40.32h1.8V80.32zM500.76 531.76h-1.8v37.08h1.8v-37.08zM500.76 936.04h-1.8v40.32h1.8v-40.32zM500.76 41.44h-1.8v37.08h1.8V41.44zM500.76 815.08h-1.8v40.32h1.8v-40.32zM500.76 570.64h-1.8v40.32h1.8v-40.32zM500.76 122.44h-1.8v41.04h1.8v-41.04zM500.76 447.88h-1.8v40.32h1.8v-40.32zM500.76 612.76h-1.8v38.88h1.8v-38.88zM500.76 1019.92h-1.8v39.96h1.8v-39.96zM500.76 692.32h-1.8v40.32h1.8v-40.32zM500.76 288.04h-1.8v37.08h1.8v-37.08zM500.76 490h-1.8v39.96h1.8V490zM500.76 857.2h-1.8v38.16h1.8V857.2zM500.76-.32h-1.8v39.96h1.8V-.32zM500.76 369.04h-1.8v38.16h1.8v-38.16zM500.76 653.44h-1.8v37.08h1.8v-37.08zM500.76 246.28h-1.8v39.96h1.8v-39.96zM500.76 326.92h-1.8v40.32h1.8v-40.32zM500.76 734.44h-1.8v39.96h1.8v-39.96zM500.76 897.16h-1.8v37.08h1.8v-37.08zM500.76 204.16h-1.8v40.32h1.8v-40.32zM500.76 978.16h-1.8v39.96h1.8v-39.96zM500.76 776.2h-1.8v37.08h1.8V776.2zM500.76 409h-1.8v37.08h1.8V409zM539.64 369.04h-1.8v38.16h1.8v-38.16zM539.64 409h-1.8v37.08h1.8V409zM539.64 936.04h-1.8v40.32h1.8v-40.32zM539.64 41.44h-1.8v37.08h1.8V41.44zM539.64 815.08h-1.8v40.32h1.8v-40.32zM539.64 165.28h-1.8v37.08h1.8v-37.08zM539.64 447.88h-1.8v40.32h1.8v-40.32zM539.64 897.16h-1.8v37.08h1.8v-37.08zM539.64 570.64h-1.8v40.32h1.8v-40.32zM539.64 80.32h-1.8v40.32h1.8V80.32zM539.64 122.44h-1.8v41.04h1.8v-41.04zM539.64 978.16h-1.8v39.96h1.8v-39.96zM539.64 776.2h-1.8v37.08h1.8V776.2zM539.64 653.44h-1.8v37.08h1.8v-37.08zM539.64 246.28h-1.8v39.96h1.8v-39.96zM539.64 531.76h-1.8v37.08h1.8v-37.08zM539.64-.32h-1.8v39.96h1.8V-.32zM539.64 490h-1.8v39.96h1.8V490zM539.64 612.76h-1.8v38.88h1.8v-38.88zM539.64 288.04h-1.8v37.08h1.8v-37.08zM539.64 692.32h-1.8v40.32h1.8v-40.32zM539.64 734.44h-1.8v39.96h1.8v-39.96zM539.64 1019.92h-1.8v39.96h1.8v-39.96zM539.64 326.92h-1.8v40.32h1.8v-40.32zM539.64 857.2h-1.8v38.16h1.8V857.2zM539.64 204.16h-1.8v40.32h1.8v-40.32zM581.76-.32h-1.8v39.96h1.8V-.32zM581.76 204.16h-1.8v40.32h1.8v-40.32zM581.76 531.76h-1.8v37.08h1.8v-37.08zM581.76 815.08h-1.8v40.32h1.8v-40.32zM581.76 409h-1.8v37.08h1.8V409zM581.76 936.04h-1.8v40.32h1.8v-40.32zM581.76 857.2h-1.8v38.16h1.8V857.2zM581.76 897.16h-1.8v37.08h1.8v-37.08zM581.76 122.44h-1.8v41.04h1.8v-41.04zM581.76 369.04h-1.8v38.16h1.8v-38.16zM581.76 447.88h-1.8v40.32h1.8v-40.32zM581.76 80.32h-1.8v40.32h1.8V80.32zM581.76 612.76h-1.8v38.88h1.8v-38.88zM581.76 978.16h-1.8v39.96h1.8v-39.96zM581.76 776.2h-1.8v37.08h1.8V776.2zM581.76 165.28h-1.8v37.08h1.8v-37.08zM581.76 570.64h-1.8v40.32h1.8v-40.32zM581.76 288.04h-1.8v37.08h1.8v-37.08zM581.76 41.44h-1.8v37.08h1.8V41.44zM581.76 734.44h-1.8v39.96h1.8v-39.96zM581.76 653.44h-1.8v37.08h1.8v-37.08zM581.76 692.32h-1.8v40.32h1.8v-40.32zM581.76 1019.92h-1.8v39.96h1.8v-39.96zM581.76 246.28h-1.8v39.96h1.8v-39.96zM581.76 326.92h-1.8v40.32h1.8v-40.32zM581.76 490h-1.8v39.96h1.8V490zM623.52 204.16h-1.8v40.32h1.8v-40.32zM623.52 570.64h-1.8v40.32h1.8v-40.32zM623.52 776.2h-1.8v37.08h1.8V776.2zM623.52 612.76h-1.8v38.88h1.8v-38.88zM623.52 1019.92h-1.8v39.96h1.8v-39.96zM623.52 447.88h-1.8v40.32h1.8v-40.32zM623.52 326.92h-1.8v40.32h1.8v-40.32zM623.52 531.76h-1.8v37.08h1.8v-37.08zM623.52 734.44h-1.8v39.96h1.8v-39.96zM623.52 936.04h-1.8v40.32h1.8v-40.32zM623.52 815.08h-1.8v40.32h1.8v-40.32zM623.52 897.16h-1.8v37.08h1.8v-37.08zM623.52 80.32h-1.8v40.32h1.8V80.32zM623.52 288.04h-1.8v37.08h1.8v-37.08zM623.52 409h-1.8v37.08h1.8V409zM623.52 369.04h-1.8v38.16h1.8v-38.16zM623.52 490h-1.8v39.96h1.8V490zM623.52 246.28h-1.8v39.96h1.8v-39.96zM623.52 122.44h-1.8v41.04h1.8v-41.04zM623.52-.32h-1.8v39.96h1.8V-.32zM623.52 165.28h-1.8v37.08h1.8v-37.08zM623.52 978.16h-1.8v39.96h1.8v-39.96zM623.52 41.44h-1.8v37.08h1.8V41.44zM623.52 857.2h-1.8v38.16h1.8V857.2zM623.52 653.44h-1.8v37.08h1.8v-37.08zM623.52 692.32h-1.8v40.32h1.8v-40.32zM662.4 776.2h-1.8v37.08h1.8V776.2zM662.4 80.32h-1.8v40.32h1.8V80.32zM662.4 936.04h-1.8v40.32h1.8v-40.32zM662.4 815.08h-1.8v40.32h1.8v-40.32zM662.4 734.44h-1.8v39.96h1.8v-39.96zM662.4 978.16h-1.8v39.96h1.8v-39.96zM662.4 165.28h-1.8v37.08h1.8v-37.08zM662.4 570.64h-1.8v40.32h1.8v-40.32zM662.4 122.44h-1.8v41.04h1.8v-41.04zM662.4 246.28h-1.8v39.96h1.8v-39.96zM662.4 204.16h-1.8v40.32h1.8v-40.32zM662.4 1019.92h-1.8v39.96h1.8v-39.96zM662.4 326.92h-1.8v40.32h1.8v-40.32zM662.4 490h-1.8v39.96h1.8V490zM662.4 612.76h-1.8v38.88h1.8v-38.88zM662.4 692.32h-1.8v40.32h1.8v-40.32zM662.4 447.88h-1.8v40.32h1.8v-40.32zM662.4 369.04h-1.8v38.16h1.8v-38.16zM662.4 897.16h-1.8v37.08h1.8v-37.08zM662.4 653.44h-1.8v37.08h1.8v-37.08zM662.4 531.76h-1.8v37.08h1.8v-37.08zM662.4 409h-1.8v37.08h1.8V409zM662.4 41.44h-1.8v37.08h1.8V41.44zM662.4 288.04h-1.8v37.08h1.8v-37.08zM662.4-.32h-1.8v39.96h1.8V-.32zM662.4 857.2h-1.8v38.16h1.8V857.2zM704.52 41.44h-1.8v37.08h1.8V41.44zM704.52 80.32h-1.8v40.32h1.8V80.32zM704.52 776.2h-1.8v37.08h1.8V776.2zM704.52 815.08h-1.8v40.32h1.8v-40.32zM704.52 165.28h-1.8v37.08h1.8v-37.08zM704.52 857.2h-1.8v38.16h1.8V857.2zM704.52 204.16h-1.8v40.32h1.8v-40.32zM704.52 734.44h-1.8v39.96h1.8v-39.96zM704.52-.32h-1.8v39.96h1.8V-.32zM704.52 1019.92h-1.8v39.96h1.8v-39.96zM704.52 246.28h-1.8v39.96h1.8v-39.96zM704.52 978.16h-1.8v39.96h1.8v-39.96zM704.52 122.44h-1.8v41.04h1.8v-41.04zM704.52 490h-1.8v39.96h1.8V490zM704.52 612.76h-1.8v38.88h1.8v-38.88zM704.52 897.16h-1.8v37.08h1.8v-37.08zM704.52 531.76h-1.8v37.08h1.8v-37.08zM704.52 447.88h-1.8v40.32h1.8v-40.32zM704.52 409h-1.8v37.08h1.8V409zM704.52 936.04h-1.8v40.32h1.8v-40.32zM704.52 570.64h-1.8v40.32h1.8v-40.32zM704.52 288.04h-1.8v37.08h1.8v-37.08zM704.52 326.92h-1.8v40.32h1.8v-40.32zM704.52 692.32h-1.8v40.32h1.8v-40.32zM704.52 369.04h-1.8v38.16h1.8v-38.16zM704.52 653.44h-1.8v37.08h1.8v-37.08zM744.48 897.16h-1.8v37.08h1.8v-37.08zM744.48 776.2h-1.8v37.08h1.8V776.2zM744.48 122.44h-1.8v41.04h1.8v-41.04zM744.48 570.64h-1.8v40.32h1.8v-40.32zM744.48 246.28h-1.8v39.96h1.8v-39.96zM744.48 734.44h-1.8v39.96h1.8v-39.96zM744.48 978.16h-1.8v39.96h1.8v-39.96zM744.48 204.16h-1.8v40.32h1.8v-40.32zM744.48 80.32h-1.8v40.32h1.8V80.32zM744.48 531.76h-1.8v37.08h1.8v-37.08zM744.48 1019.92h-1.8v39.96h1.8v-39.96zM744.48 41.44h-1.8v37.08h1.8V41.44zM744.48 815.08h-1.8v40.32h1.8v-40.32zM744.48-.32h-1.8v39.96h1.8V-.32zM744.48 857.2h-1.8v38.16h1.8V857.2zM744.48 165.28h-1.8v37.08h1.8v-37.08zM744.48 369.04h-1.8v38.16h1.8v-38.16zM744.48 288.04h-1.8v37.08h1.8v-37.08zM744.48 409h-1.8v37.08h1.8V409zM744.48 612.76h-1.8v38.88h1.8v-38.88zM744.48 653.44h-1.8v37.08h1.8v-37.08zM744.48 326.92h-1.8v40.32h1.8v-40.32zM744.48 692.32h-1.8v40.32h1.8v-40.32zM744.48 490h-1.8v39.96h1.8V490zM744.48 447.88h-1.8v40.32h1.8v-40.32zM744.48 936.04h-1.8v40.32h1.8v-40.32zM783.36 936.04h-1.8v40.32h1.8v-40.32zM783.36 490h-1.8v39.96h1.8V490zM783.36 570.64h-1.8v40.32h1.8v-40.32zM783.36 369.04h-1.8v38.16h1.8v-38.16zM783.36 897.16h-1.8v37.08h1.8v-37.08zM783.36 612.76h-1.8v38.88h1.8v-38.88zM783.36 531.76h-1.8v37.08h1.8v-37.08zM783.36 122.44h-1.8v41.04h1.8v-41.04zM783.36 692.32h-1.8v40.32h1.8v-40.32zM783.36 857.2h-1.8v38.16h1.8V857.2zM783.36 80.32h-1.8v40.32h1.8V80.32zM783.36 326.92h-1.8v40.32h1.8v-40.32zM783.36 165.28h-1.8v37.08h1.8v-37.08zM783.36 776.2h-1.8v37.08h1.8V776.2zM783.36 288.04h-1.8v37.08h1.8v-37.08zM783.36-.32h-1.8v39.96h1.8V-.32zM783.36 1019.92h-1.8v39.96h1.8v-39.96zM783.36 447.88h-1.8v40.32h1.8v-40.32zM783.36 41.44h-1.8v37.08h1.8V41.44zM783.36 246.28h-1.8v39.96h1.8v-39.96zM783.36 734.44h-1.8v39.96h1.8v-39.96zM783.36 815.08h-1.8v40.32h1.8v-40.32zM783.36 978.16h-1.8v39.96h1.8v-39.96zM783.36 653.44h-1.8v37.08h1.8v-37.08zM783.36 204.16h-1.8v40.32h1.8v-40.32zM783.36 409h-1.8v37.08h1.8V409zM825.48 80.32h-1.8v40.32h1.8V80.32zM825.48 490h-1.8v39.96h1.8V490zM825.48 531.76h-1.8v37.08h1.8v-37.08zM825.48 936.04h-1.8v40.32h1.8v-40.32zM825.48 815.08h-1.8v40.32h1.8v-40.32zM825.48 612.76h-1.8v38.88h1.8v-38.88zM825.48 570.64h-1.8v40.32h1.8v-40.32zM825.48 653.44h-1.8v37.08h1.8v-37.08zM825.48 897.16h-1.8v37.08h1.8v-37.08zM825.48-.32h-1.8v39.96h1.8V-.32zM825.48 246.28h-1.8v39.96h1.8v-39.96zM825.48 288.04h-1.8v37.08h1.8v-37.08zM825.48 734.44h-1.8v39.96h1.8v-39.96zM825.48 122.44h-1.8v41.04h1.8v-41.04zM825.48 776.2h-1.8v37.08h1.8V776.2zM825.48 326.92h-1.8v40.32h1.8v-40.32zM825.48 409h-1.8v37.08h1.8V409zM825.48 978.16h-1.8v39.96h1.8v-39.96zM825.48 369.04h-1.8v38.16h1.8v-38.16zM825.48 165.28h-1.8v37.08h1.8v-37.08zM825.48 447.88h-1.8v40.32h1.8v-40.32zM825.48 692.32h-1.8v40.32h1.8v-40.32zM825.48 41.44h-1.8v37.08h1.8V41.44zM825.48 857.2h-1.8v38.16h1.8V857.2zM825.48 204.16h-1.8v40.32h1.8v-40.32zM825.48 1019.92h-1.8v39.96h1.8v-39.96zM867.24 653.44h-1.8v37.08h1.8v-37.08zM867.24 776.2h-1.8v37.08h1.8V776.2zM867.24 570.64h-1.8v40.32h1.8v-40.32zM867.24-.32h-1.8v39.96h1.8V-.32zM867.24 326.92h-1.8v40.32h1.8v-40.32zM867.24 369.04h-1.8v38.16h1.8v-38.16zM867.24 447.88h-1.8v40.32h1.8v-40.32zM867.24 1019.92h-1.8v39.96h1.8v-39.96zM867.24 612.76h-1.8v38.88h1.8v-38.88zM867.24 734.44h-1.8v39.96h1.8v-39.96zM867.24 815.08h-1.8v40.32h1.8v-40.32zM867.24 857.2h-1.8v38.16h1.8V857.2zM867.24 978.16h-1.8v39.96h1.8v-39.96zM867.24 897.16h-1.8v37.08h1.8v-37.08zM867.24 409h-1.8v37.08h1.8V409zM867.24 288.04h-1.8v37.08h1.8v-37.08zM867.24 41.44h-1.8v37.08h1.8V41.44zM867.24 204.16h-1.8v40.32h1.8v-40.32zM867.24 936.04h-1.8v40.32h1.8v-40.32zM867.24 246.28h-1.8v39.96h1.8v-39.96zM867.24 165.28h-1.8v37.08h1.8v-37.08zM867.24 531.76h-1.8v37.08h1.8v-37.08zM867.24 122.44h-1.8v41.04h1.8v-41.04zM867.24 692.32h-1.8v40.32h1.8v-40.32zM867.24 80.32h-1.8v40.32h1.8V80.32zM867.24 490h-1.8v39.96h1.8V490zM906.12 692.32h-1.8v40.32h1.8v-40.32zM906.12 815.08h-1.8v40.32h1.8v-40.32zM906.12 612.76h-1.8v38.88h1.8v-38.88zM906.12 369.04h-1.8v38.16h1.8v-38.16zM906.12 490h-1.8v39.96h1.8V490zM906.12 326.92h-1.8v40.32h1.8v-40.32zM906.12 80.32h-1.8v40.32h1.8V80.32zM906.12 165.28h-1.8v37.08h1.8v-37.08zM906.12 978.16h-1.8v39.96h1.8v-39.96zM906.12 122.44h-1.8v41.04h1.8v-41.04zM906.12 204.16h-1.8v40.32h1.8v-40.32zM906.12 447.88h-1.8v40.32h1.8v-40.32zM906.12 570.64h-1.8v40.32h1.8v-40.32zM906.12 776.2h-1.8v37.08h1.8V776.2zM906.12 734.44h-1.8v39.96h1.8v-39.96zM906.12 288.04h-1.8v37.08h1.8v-37.08zM906.12 531.76h-1.8v37.08h1.8v-37.08zM906.12 246.28h-1.8v39.96h1.8v-39.96zM906.12 936.04h-1.8v40.32h1.8v-40.32zM906.12 857.2h-1.8v38.16h1.8V857.2zM906.12 653.44h-1.8v37.08h1.8v-37.08zM906.12 409h-1.8v37.08h1.8V409zM906.12 897.16h-1.8v37.08h1.8v-37.08zM906.12 41.44h-1.8v37.08h1.8V41.44zM906.12-.32h-1.8v39.96h1.8V-.32zM906.12 1019.92h-1.8v39.96h1.8v-39.96zM948.24 165.28h-1.8v37.08h1.8v-37.08zM948.24 776.2h-1.8v37.08h1.8V776.2zM948.24 936.04h-1.8v40.32h1.8v-40.32zM948.24 857.2h-1.8v38.16h1.8V857.2zM948.24-.32h-1.8v39.96h1.8V-.32zM948.24 409h-1.8v37.08h1.8V409zM948.24 447.88h-1.8v40.32h1.8v-40.32zM948.24 326.92h-1.8v40.32h1.8v-40.32zM948.24 288.04h-1.8v37.08h1.8v-37.08zM948.24 897.16h-1.8v37.08h1.8v-37.08zM948.24 692.32h-1.8v40.32h1.8v-40.32zM948.24 612.76h-1.8v38.88h1.8v-38.88zM948.24 1019.92h-1.8v39.96h1.8v-39.96zM948.24 653.44h-1.8v37.08h1.8v-37.08zM948.24 490h-1.8v39.96h1.8V490zM948.24 204.16h-1.8v40.32h1.8v-40.32zM948.24 570.64h-1.8v40.32h1.8v-40.32zM948.24 246.28h-1.8v39.96h1.8v-39.96zM948.24 369.04h-1.8v38.16h1.8v-38.16zM948.24 531.76h-1.8v37.08h1.8v-37.08zM948.24 734.44h-1.8v39.96h1.8v-39.96zM948.24 80.32h-1.8v40.32h1.8V80.32zM948.24 815.08h-1.8v40.32h1.8v-40.32zM948.24 978.16h-1.8v39.96h1.8v-39.96zM948.24 41.44h-1.8v37.08h1.8V41.44zM948.24 122.44h-1.8v41.04h1.8v-41.04zM988.92 122.44h-1.8v41.04h1.8v-41.04zM988.92 409h-1.8v37.08h1.8V409zM988.92 692.32h-1.8v40.32h1.8v-40.32zM988.92 531.76h-1.8v37.08h1.8v-37.08zM988.92 1019.92h-1.8v39.96h1.8v-39.96zM988.92 326.92h-1.8v40.32h1.8v-40.32zM988.92 734.44h-1.8v39.96h1.8v-39.96zM988.92 246.28h-1.8v39.96h1.8v-39.96zM988.92 204.16h-1.8v40.32h1.8v-40.32zM988.92 612.76h-1.8v38.88h1.8v-38.88zM988.92 41.44h-1.8v37.08h1.8V41.44zM988.92 936.04h-1.8v40.32h1.8v-40.32zM988.92 815.08h-1.8v40.32h1.8v-40.32zM988.92-.32h-1.8v39.96h1.8V-.32zM988.92 570.64h-1.8v40.32h1.8v-40.32zM988.92 776.2h-1.8v37.08h1.8V776.2zM988.92 447.88h-1.8v40.32h1.8v-40.32zM988.92 490h-1.8v39.96h1.8V490zM988.92 165.28h-1.8v37.08h1.8v-37.08zM988.92 80.32h-1.8v40.32h1.8V80.32zM988.92 288.04h-1.8v37.08h1.8v-37.08zM988.92 978.16h-1.8v39.96h1.8v-39.96zM988.92 857.2h-1.8v38.16h1.8V857.2zM988.92 653.44h-1.8v37.08h1.8v-37.08zM988.92 897.16h-1.8v37.08h1.8v-37.08zM988.92 369.04h-1.8v38.16h1.8v-38.16zM1027.8 41.44h-1.8v37.08h1.8V41.44zM1027.8-.32h-1.8v39.96h1.8V-.32zM1027.8 165.28h-1.8v37.08h1.8v-37.08zM1027.8 897.16h-1.8v37.08h1.8v-37.08zM1027.8 204.16h-1.8v40.32h1.8v-40.32zM1027.8 653.44h-1.8v37.08h1.8v-37.08zM1027.8 692.32h-1.8v40.32h1.8v-40.32zM1027.8 369.04h-1.8v38.16h1.8v-38.16zM1027.8 409h-1.8v37.08h1.8V409zM1027.8 447.88h-1.8v40.32h1.8v-40.32zM1027.8 1019.92h-1.8v39.96h1.8v-39.96zM1027.8 490h-1.8v39.96h1.8V490zM1027.8 978.16h-1.8v39.96h1.8v-39.96zM1027.8 122.44h-1.8v41.04h1.8v-41.04zM1027.8 612.76h-1.8v38.88h1.8v-38.88zM1027.8 857.2h-1.8v38.16h1.8V857.2zM1027.8 776.2h-1.8v37.08h1.8V776.2zM1027.8 936.04h-1.8v40.32h1.8v-40.32zM1027.8 246.28h-1.8v39.96h1.8v-39.96zM1027.8 80.32h-1.8v40.32h1.8V80.32zM1027.8 288.04h-1.8v37.08h1.8v-37.08zM1027.8 734.44h-1.8v39.96h1.8v-39.96zM1027.8 570.64h-1.8v40.32h1.8v-40.32zM1027.8 326.92h-1.8v40.32h1.8v-40.32zM1027.8 815.08h-1.8v40.32h1.8v-40.32zM1027.8 531.76h-1.8v37.08h1.8v-37.08zM1069.92 80.32h-1.8v40.32h1.8V80.32zM1069.92 612.76h-1.8v38.88h1.8v-38.88zM1069.92 246.28h-1.8v39.96h1.8v-39.96zM1069.92 857.2h-1.8v38.16h1.8V857.2zM1069.92 692.32h-1.8v40.32h1.8v-40.32zM1069.92 978.16h-1.8v39.96h1.8v-39.96zM1069.92 326.92h-1.8v40.32h1.8v-40.32zM1069.92 936.04h-1.8v40.32h1.8v-40.32zM1069.92 897.16h-1.8v37.08h1.8v-37.08zM1069.92 570.64h-1.8v40.32h1.8v-40.32zM1069.92 122.44h-1.8v41.04h1.8v-41.04zM1069.92 204.16h-1.8v40.32h1.8v-40.32zM1069.92 41.44h-1.8v37.08h1.8V41.44zM1069.92 409h-1.8v37.08h1.8V409zM1069.92 815.08h-1.8v40.32h1.8v-40.32zM1069.92 1019.92h-1.8v39.96h1.8v-39.96zM1069.92 165.28h-1.8v37.08h1.8v-37.08zM1069.92 490h-1.8v39.96h1.8V490zM1069.92 776.2h-1.8v37.08h1.8V776.2zM1069.92 447.88h-1.8v40.32h1.8v-40.32zM1069.92 369.04h-1.8v38.16h1.8v-38.16zM1069.92 531.76h-1.8v37.08h1.8v-37.08zM1069.92 288.04h-1.8v37.08h1.8v-37.08zM1069.92 653.44h-1.8v37.08h1.8v-37.08zM1069.92-.32h-1.8v39.96h1.8V-.32zM1069.92 734.44h-1.8v39.96h1.8v-39.96zM1111.68 857.2h-1.8v38.16h1.8V857.2zM1111.68 570.64h-1.8v40.32h1.8v-40.32zM1111.68 1019.92h-1.8v39.96h1.8v-39.96zM1111.68 80.32h-1.8v40.32h1.8V80.32zM1111.68 815.08h-1.8v40.32h1.8v-40.32zM1111.68 41.44h-1.8v37.08h1.8V41.44zM1111.68 326.92h-1.8v40.32h1.8v-40.32zM1111.68 612.76h-1.8v38.88h1.8v-38.88zM1111.68 122.44h-1.8v41.04h1.8v-41.04zM1111.68 692.32h-1.8v40.32h1.8v-40.32zM1111.68 409h-1.8v37.08h1.8V409zM1111.68 734.44h-1.8v39.96h1.8v-39.96zM1111.68 246.28h-1.8v39.96h1.8v-39.96zM1111.68 978.16h-1.8v39.96h1.8v-39.96zM1111.68 369.04h-1.8v38.16h1.8v-38.16zM1111.68 531.76h-1.8v37.08h1.8v-37.08zM1111.68 288.04h-1.8v37.08h1.8v-37.08zM1111.68 490h-1.8v39.96h1.8V490zM1111.68 165.28h-1.8v37.08h1.8v-37.08zM1111.68 447.88h-1.8v40.32h1.8v-40.32zM1111.68 776.2h-1.8v37.08h1.8V776.2zM1111.68 897.16h-1.8v37.08h1.8v-37.08zM1111.68-.32h-1.8v39.96h1.8V-.32zM1111.68 653.44h-1.8v37.08h1.8v-37.08zM1111.68 936.04h-1.8v40.32h1.8v-40.32zM1111.68 204.16h-1.8v40.32h1.8v-40.32zM1150.56 653.44h-1.8v37.08h1.8v-37.08zM1150.56 447.88h-1.8v40.32h1.8v-40.32zM1150.56 288.04h-1.8v37.08h1.8v-37.08zM1150.56 815.08h-1.8v40.32h1.8v-40.32zM1150.56 204.16h-1.8v40.32h1.8v-40.32zM1150.56 776.2h-1.8v37.08h1.8V776.2zM1150.56 246.28h-1.8v39.96h1.8v-39.96zM1150.56 734.44h-1.8v39.96h1.8v-39.96zM1150.56 857.2h-1.8v38.16h1.8V857.2zM1150.56 122.44h-1.8v41.04h1.8v-41.04zM1150.56 570.64h-1.8v40.32h1.8v-40.32zM1150.56 165.28h-1.8v37.08h1.8v-37.08zM1150.56 1019.92h-1.8v39.96h1.8v-39.96zM1150.56 41.44h-1.8v37.08h1.8V41.44zM1150.56 80.32h-1.8v40.32h1.8V80.32zM1150.56 409h-1.8v37.08h1.8V409zM1150.56 531.76h-1.8v37.08h1.8v-37.08zM1150.56 326.92h-1.8v40.32h1.8v-40.32zM1150.56 936.04h-1.8v40.32h1.8v-40.32zM1150.56 490h-1.8v39.96h1.8V490zM1150.56 369.04h-1.8v38.16h1.8v-38.16zM1150.56 692.32h-1.8v40.32h1.8v-40.32zM1150.56-.32h-1.8v39.96h1.8V-.32zM1150.56 897.16h-1.8v37.08h1.8v-37.08zM1150.56 612.76h-1.8v38.88h1.8v-38.88zM1150.56 978.16h-1.8v39.96h1.8v-39.96zM1192.68 815.08h-1.8v40.32h1.8v-40.32zM1192.68 409h-1.8v37.08h1.8V409zM1192.68 612.76h-1.8v38.88h1.8v-38.88zM1192.68 776.2h-1.8v37.08h1.8V776.2zM1192.68 1019.92h-1.8v39.96h1.8v-39.96zM1192.68 165.28h-1.8v37.08h1.8v-37.08zM1192.68 570.64h-1.8v40.32h1.8v-40.32zM1192.68 80.32h-1.8v40.32h1.8V80.32zM1192.68 122.44h-1.8v41.04h1.8v-41.04zM1192.68 936.04h-1.8v40.32h1.8v-40.32zM1192.68 978.16h-1.8v39.96h1.8v-39.96zM1192.68 447.88h-1.8v40.32h1.8v-40.32zM1192.68-.32h-1.8v39.96h1.8V-.32zM1192.68 653.44h-1.8v37.08h1.8v-37.08zM1192.68 857.2h-1.8v38.16h1.8V857.2zM1192.68 41.44h-1.8v37.08h1.8V41.44zM1192.68 897.16h-1.8v37.08h1.8v-37.08zM1192.68 369.04h-1.8v38.16h1.8v-38.16zM1192.68 531.76h-1.8v37.08h1.8v-37.08zM1192.68 734.44h-1.8v39.96h1.8v-39.96zM1192.68 692.32h-1.8v40.32h1.8v-40.32zM1192.68 326.92h-1.8v40.32h1.8v-40.32zM1192.68 204.16h-1.8v40.32h1.8v-40.32zM1192.68 246.28h-1.8v39.96h1.8v-39.96zM1192.68 490h-1.8v39.96h1.8V490zM1192.68 288.04h-1.8v37.08h1.8v-37.08zM1232.64 612.76h-1.8v38.88h1.8v-38.88zM1232.64 570.64h-1.8v40.32h1.8v-40.32zM1232.64 531.76h-1.8v37.08h1.8v-37.08zM1232.64 653.44h-1.8v37.08h1.8v-37.08zM1232.64 490h-1.8v39.96h1.8V490zM1232.64 692.32h-1.8v40.32h1.8v-40.32zM1232.64 409h-1.8v37.08h1.8V409zM1232.64 447.88h-1.8v40.32h1.8v-40.32zM1232.64 857.2h-1.8v38.16h1.8V857.2zM1232.64 734.44h-1.8v39.96h1.8v-39.96zM1232.64 1019.92h-1.8v39.96h1.8v-39.96zM1232.64 978.16h-1.8v39.96h1.8v-39.96zM1232.64 897.16h-1.8v37.08h1.8v-37.08zM1232.64 369.04h-1.8v38.16h1.8v-38.16zM1232.64 776.2h-1.8v37.08h1.8V776.2zM1232.64 815.08h-1.8v40.32h1.8v-40.32zM1232.64 936.04h-1.8v40.32h1.8v-40.32zM1232.64 326.92h-1.8v40.32h1.8v-40.32zM1232.64-.32h-1.8v39.96h1.8V-.32zM1232.64 246.28h-1.8v39.96h1.8v-39.96zM1232.64 288.04h-1.8v37.08h1.8v-37.08zM1232.64 204.16h-1.8v40.32h1.8v-40.32zM1232.64 165.28h-1.8v37.08h1.8v-37.08zM1232.64 80.32h-1.8v40.32h1.8V80.32zM1232.64 122.44h-1.8v41.04h1.8v-41.04zM1232.64 41.44h-1.8v37.08h1.8V41.44zM1279.08 288.04h-1.8v37.08h1.8v-37.08zM1279.08 531.76h-1.8v37.08h1.8v-37.08zM1279.08 857.2h-1.8v38.16h1.8V857.2zM1279.08 897.16h-1.8v37.08h1.8v-37.08zM1279.08 1019.92h-1.8v39.96h1.8v-39.96zM1279.08 734.44h-1.8v39.96h1.8v-39.96zM1279.08 815.08h-1.8v40.32h1.8v-40.32zM1279.08 612.76h-1.8v38.88h1.8v-38.88zM1279.08 570.64h-1.8v40.32h1.8v-40.32zM1279.08 326.92h-1.8v40.32h1.8v-40.32zM1279.08 165.28h-1.8v37.08h1.8v-37.08zM1279.08 978.16h-1.8v39.96h1.8v-39.96zM1279.08 246.28h-1.8v39.96h1.8v-39.96zM1279.08 204.16h-1.8v40.32h1.8v-40.32zM1279.08 41.44h-1.8v37.08h1.8V41.44zM1279.08 653.44h-1.8v37.08h1.8v-37.08zM1279.08 936.04h-1.8v40.32h1.8v-40.32zM1279.08 447.88h-1.8v40.32h1.8v-40.32zM1279.08 776.2h-1.8v37.08h1.8V776.2zM1279.08 122.44h-1.8v41.04h1.8v-41.04zM1279.08 80.32h-1.8v40.32h1.8V80.32zM1279.08 409h-1.8v37.08h1.8V409zM1279.08 369.04h-1.8v38.16h1.8v-38.16zM1279.08-.32h-1.8v39.96h1.8V-.32zM1279.08 490h-1.8v39.96h1.8V490zM1279.08 692.32h-1.8v40.32h1.8v-40.32zM1317.96-.32h-1.8v39.96h1.8V-.32zM1317.96 653.44h-1.8v37.08h1.8v-37.08zM1317.96 570.64h-1.8v40.32h1.8v-40.32zM1317.96 692.32h-1.8v40.32h1.8v-40.32zM1317.96 776.2h-1.8v37.08h1.8V776.2zM1317.96 409h-1.8v37.08h1.8V409zM1317.96 447.88h-1.8v40.32h1.8v-40.32zM1317.96 490h-1.8v39.96h1.8V490zM1317.96 531.76h-1.8v37.08h1.8v-37.08zM1317.96 734.44h-1.8v39.96h1.8v-39.96zM1317.96 978.16h-1.8v39.96h1.8v-39.96zM1317.96 1019.92h-1.8v39.96h1.8v-39.96zM1317.96 815.08h-1.8v40.32h1.8v-40.32zM1317.96 857.2h-1.8v38.16h1.8V857.2zM1317.96 897.16h-1.8v37.08h1.8v-37.08zM1317.96 936.04h-1.8v40.32h1.8v-40.32zM1317.96 41.44h-1.8v37.08h1.8V41.44zM1317.96 369.04h-1.8v38.16h1.8v-38.16zM1317.96 246.28h-1.8v39.96h1.8v-39.96zM1317.96 288.04h-1.8v37.08h1.8v-37.08zM1317.96 326.92h-1.8v40.32h1.8v-40.32zM1317.96 80.32h-1.8v40.32h1.8V80.32zM1317.96 204.16h-1.8v40.32h1.8v-40.32zM1317.96 122.44h-1.8v41.04h1.8v-41.04zM1317.96 165.28h-1.8v37.08h1.8v-37.08zM1317.96 612.76h-1.8v38.88h1.8v-38.88zM1362.6 165.28h-1.8v37.08h1.8v-37.08zM1362.6 653.44h-1.8v37.08h1.8v-37.08zM1362.6 612.76h-1.8v38.88h1.8v-38.88zM1362.6 692.32h-1.8v40.32h1.8v-40.32zM1362.6 409h-1.8v37.08h1.8V409zM1362.6 776.2h-1.8v37.08h1.8V776.2zM1362.6 447.88h-1.8v40.32h1.8v-40.32zM1362.6 490h-1.8v39.96h1.8V490zM1362.6 570.64h-1.8v40.32h1.8v-40.32zM1362.6 531.76h-1.8v37.08h1.8v-37.08zM1362.6 734.44h-1.8v39.96h1.8v-39.96zM1362.6 1019.92h-1.8v39.96h1.8v-39.96zM1362.6 978.16h-1.8v39.96h1.8v-39.96zM1362.6 897.16h-1.8v37.08h1.8v-37.08zM1362.6 857.2h-1.8v38.16h1.8V857.2zM1362.6 815.08h-1.8v40.32h1.8v-40.32zM1362.6 936.04h-1.8v40.32h1.8v-40.32zM1362.6-.32h-1.8v39.96h1.8V-.32zM1362.6 369.04h-1.8v38.16h1.8v-38.16zM1362.6 246.28h-1.8v39.96h1.8v-39.96zM1362.6 288.04h-1.8v37.08h1.8v-37.08zM1362.6 326.92h-1.8v40.32h1.8v-40.32zM1362.6 204.16h-1.8v40.32h1.8v-40.32zM1362.6 41.44h-1.8v37.08h1.8V41.44zM1362.6 80.32h-1.8v40.32h1.8V80.32zM1362.6 122.44h-1.8v41.04h1.8v-41.04zM1405.08 570.64h-1.8v40.32h1.8v-40.32zM1405.08 612.76h-1.8v38.88h1.8v-38.88zM1405.08 734.44h-1.8v39.96h1.8v-39.96zM1405.08 692.32h-1.8v40.32h1.8v-40.32zM1405.08 653.44h-1.8v37.08h1.8v-37.08zM1405.08 409h-1.8v37.08h1.8V409zM1405.08 531.76h-1.8v37.08h1.8v-37.08zM1405.08 490h-1.8v39.96h1.8V490zM1405.08 447.88h-1.8v40.32h1.8v-40.32zM1405.08 978.16h-1.8v39.96h1.8v-39.96zM1405.08 936.04h-1.8v40.32h1.8v-40.32zM1405.08 1019.92h-1.8v39.96h1.8v-39.96zM1405.08 897.16h-1.8v37.08h1.8v-37.08zM1405.08 776.2h-1.8v37.08h1.8V776.2zM1405.08 815.08h-1.8v40.32h1.8v-40.32zM1405.08 857.2h-1.8v38.16h1.8V857.2zM1405.08 369.04h-1.8v38.16h1.8v-38.16zM1405.08-.32h-1.8v39.96h1.8V-.32zM1405.08 246.28h-1.8v39.96h1.8v-39.96zM1405.08 204.16h-1.8v40.32h1.8v-40.32zM1405.08 288.04h-1.8v37.08h1.8v-37.08zM1405.08 326.92h-1.8v40.32h1.8v-40.32zM1405.08 41.44h-1.8v37.08h1.8V41.44zM1405.08 80.32h-1.8v40.32h1.8V80.32zM1405.08 122.44h-1.8v41.04h1.8v-41.04zM1405.08 165.28h-1.8v37.08h1.8v-37.08zM1403.28 39.64H0v1.8H1440v-1.8h-36.72zM1403.28 78.52H0v1.8H1440v-1.8h-36.72zM1403.28 120.64H0v1.8H1440v-1.8h-36.72zM1403.28 163.48H0v1.8H1440v-1.8h-36.72z"/>
        <path d="M1403.28 202.36H0v1.8H1440v-1.8h-36.72zM1403.28 244.48H0v1.8H1440v-1.8h-36.72zM1403.28 286.24H0v1.8H1440v-1.8h-36.72zM1403.28 325.12H0v1.8H1440v-1.8h-36.72zM1403.28 367.24H0v1.8H1440v-1.8h-36.72zM1403.28 407.2H0v1.8H1440v-1.8h-36.72zM1403.28 446.08H0v1.8H1440v-1.8h-36.72zM1403.28 488.2H0v1.8H1440v-1.8h-36.72zM1403.28 529.96H0v1.8H1440v-1.8h-36.72zM1403.28 568.84H0v1.8H1440v-1.8h-36.72zM1403.28 610.96H0v1.8H1440v-1.8h-36.72zM1403.28 651.64H0v1.8H1440v-1.8h-36.72zM1403.28 690.52H0v1.8H1440v-1.8h-36.72zM1403.28 732.64H0v1.8H1440v-1.8h-36.72zM1403.28 774.4H0v1.8H1440v-1.8h-36.72zM1403.28 813.28H0v1.8H1440v-1.8h-36.72zM1403.28 855.4H0v1.8H1440v-1.8h-36.72zM1403.28 895.36H0v1.8H1440v-1.8h-36.72zM1403.28 934.24H0v1.8H1440v-1.8h-36.72zM1403.28 976.36H0v1.8H1440v-1.8h-36.72zM1403.28 1018.12H0v1.8H1440v-1.8h-36.72z"/>
    </g>
    <defs>
        <clipPath id="sd3243hzga">
            <path fill="#fff" transform="translate(0 -365)" d="M0 0h1440v1440H0z"/>
        </clipPath>
    </defs>
</svg>
