<svg width="308" height="242" viewBox="0 0 308 242" fill="none" xmlns="http://www.w3.org/2000/svg">
    <path opacity=".3" d="M44.771 218.344h221.196c11.242 0 20.071-9.575 19.044-20.736-.821-9.165-4.979-17.971-12.012-23.808-4.568-3.789-10.164-6.4-13.808-11.111-7.7-9.881-3.85-24.524 2.464-35.379 6.108-10.547 14.27-20.07 18.172-31.692 3.901-11.572 2.053-26.573-8.368-32.87-6.724-4.046-15.092-3.431-22.946-3.687-7.802-.256-16.683-2.202-20.636-9.011-3.388-5.837-2.156-13.67-5.8-19.354-5.339-8.346-17.505-7.629-26.848-4.608-18.685 6.093-36.96 7.27-56.569 8.192-15.297.717-30.133-5.223-45.379-6.144C73.312 26.958 36.61 38.99 24.186 76.264c-2.463 7.373 1.849 19.098 5.955 25.702 4.26 6.81 11.858 11.059 15.554 18.176 5.339 10.343.822 23.091-5.441 32.871-6.263 9.779-14.425 18.841-16.889 30.208-2.207 9.932.462 20.787 6.982 28.518 0 .051.05.051.05.102 3.543 4.148 8.882 6.503 14.374 6.503z" fill="#D2E4FF"/>
    <path d="M91.331 79.49H75.11c-.103 0-.205-.103-.205-.205 0-.103.102-.205.205-.205H91.33c.103 0 .206.102.206.205 0 .102-.103.204-.206.204zm0 8.038H75.11c-.103 0-.205-.103-.205-.205s.102-.205.205-.205H91.33c.103 0 .206.103.206.205s-.103.205-.206.205zm-2.977-4.045H65.459c-.102 0-.205-.102-.205-.205 0-.102.103-.205.205-.205h22.895c.103 0 .205.103.205.205 0 .103-.102.205-.205.205z" fill="#C6E2FA"/>
    <path d="M78.446 79.49c-.103 0-.206-.103-.206-.205v-3.38c0-.102.103-.204.206-.204.102 0 .205.102.205.205v3.379c0 .153-.103.205-.205.205zm5.698 3.993c-.103 0-.206-.102-.206-.205v-3.993c0-.103.103-.205.206-.205.102 0 .205.102.205.205v3.993c0 .154-.103.205-.205.205zm-4.364 3.891c-.102 0-.205-.102-.205-.204v-3.892c0-.102.103-.205.205-.205.103 0 .206.103.206.205v3.891c0 .103-.103.205-.206.205zm176.176 36.659h-16.17c-.102 0-.205-.102-.205-.204a.22.22 0 0 1 .205-.205h16.222a.22.22 0 0 1 .205.205c0 .102-.154.204-.257.204zm0 7.988h-16.17c-.102 0-.205-.103-.205-.205a.22.22 0 0 1 .205-.205h16.222a.22.22 0 0 1 .205.205c0 .102-.154.205-.257.205zm-2.926-3.994h-22.894c-.103 0-.206-.102-.206-.205 0-.102.103-.205.206-.205h22.894c.103 0 .206.103.206.205 0 .103-.103.205-.206.205z" fill="#C6E2FA"/>
    <path d="M243.073 124.033c-.103 0-.206-.102-.206-.204v-3.38c0-.102.103-.204.206-.204.102 0 .205.102.205.204v3.38c0 .102-.051.204-.205.204zm5.698 3.994c-.103 0-.206-.102-.206-.205v-3.993c0-.103.103-.205.206-.205a.22.22 0 0 1 .205.205v3.993c0 .103-.051.205-.205.205zm-4.312 3.84c-.103 0-.206-.102-.206-.205v-3.84c0-.102.103-.205.206-.205.102 0 .205.103.205.205v3.891c0 .103-.103.154-.205.154z" fill="#C6E2FA"/>
    <path d="M232.241 47.9v115.967c0 4.147-3.388 7.527-7.546 7.527H94.821c-4.158 0-7.546-3.38-7.546-7.527V47.899h144.966z" fill="#fff"/>
    <path opacity=".08" d="M232.241 63.873V84.61h-5.595l-5.339 4.199c-.513.41-1.334.051-1.334-.615v-3.532h-4.056c-.975 0-1.796-.82-1.796-1.792V65.768c0-.973.821-1.792 1.796-1.792h16.324v-.102zm-51.538 96.973h-44.506c-1.9 0-3.491-1.536-3.491-3.481v-10.496a3.49 3.49 0 0 1 3.491-3.482h44.506c1.899 0 3.49 1.536 3.49 3.482v10.496c0 1.945-1.591 3.481-3.49 3.481zm20.43-43.724v18.022a1.947 1.947 0 0 1-1.95 1.946h-82.236a1.948 1.948 0 0 1-1.951-1.946v-18.022c0-1.076.873-1.946 1.951-1.946h82.236c1.078-.051 1.95.87 1.95 1.946z" fill="#061B64"/>
    <path d="M232.241 42.011v5.888H87.225v-5.888c0-4.147 3.388-7.526 7.546-7.526h129.873c4.209 0 7.597 3.379 7.597 7.526z" fill="#061B64"/>
    <path d="M96.876 41.704a2.188 2.188 0 0 1-2.208 2.201 2.188 2.188 0 0 1-2.207-2.201c0-1.229.975-2.202 2.207-2.202 1.232 0 2.208.973 2.208 2.202zm6.724 0a2.188 2.188 0 0 1-2.207 2.201 2.188 2.188 0 0 1-2.207-2.201c0-1.229.975-2.202 2.207-2.202 1.232 0 2.207.973 2.207 2.202zm6.725 0a2.188 2.188 0 0 1-2.207 2.201 2.189 2.189 0 0 1-2.208-2.201c0-1.229.976-2.202 2.208-2.202 1.232 0 2.207.973 2.207 2.202z" fill="#fff"/>
    <path d="M241.84 218.344c-34.547-9.882-33.469-63.847-33.469-63.847 13.09.564 12.012-11.059 12.012-11.059 14.271-1.997 28.541-1.997 42.863 0 0 0-1.026 11.623 12.012 11.059 0 0 1.13 53.965-33.418 63.847z" fill="#5291E3"/>
    <path d="M241.841 210.51c-22.536-7.321-25.77-39.424-26.232-49.92 3.08-.461 5.544-1.741 7.444-3.789 1.848-2.048 2.669-4.403 3.028-6.297a135.428 135.428 0 0 1 15.76-.922c5.236 0 10.523.307 15.759.922.359 1.894 1.181 4.301 3.029 6.297 1.848 2.048 4.363 3.328 7.443 3.789-.462 10.496-3.747 42.599-26.231 49.92z" fill="#fff"/>
    <path d="M241.841 192.181c6.691 0 12.115-5.41 12.115-12.084 0-6.673-5.424-12.083-12.115-12.083s-12.114 5.41-12.114 12.083c0 6.674 5.423 12.084 12.114 12.084z" fill="#061B64"/>
    <path d="M239.273 185.269c-.308 0-.616-.103-.872-.359l-2.67-2.662c-.462-.461-.462-1.28 0-1.741.462-.461 1.284-.461 1.746 0l1.796 1.792 6.982-6.963c.462-.461 1.283-.461 1.745 0 .462.461.462 1.28 0 1.741l-7.854 7.833a1.206 1.206 0 0 1-.873.359z" fill="#fff"/>
    <path opacity=".08" d="M171.257 78.363h-1.026v-6.4c0-6.144-4.569-11.469-10.678-12.39a11.873 11.873 0 0 0-1.899-.154c-6.93 0-12.577 5.632-12.577 12.544v6.4h-1.591a3.95 3.95 0 0 0-3.953 3.943v20.531c0 2.201 1.797 3.942 3.953 3.942h27.823a3.949 3.949 0 0 0 3.952-3.942V82.306c0-2.202-1.796-3.943-4.004-3.943zm-23.408-6.4c0-5.376 4.364-9.779 9.805-9.779.513 0 1.027.051 1.489.102 4.722.717 8.264 4.864 8.264 9.626v6.4h-19.558v-6.349z" fill="#061B64"/>
    <path d="M174.748 105.346h-30.954a2.407 2.407 0 0 1-2.413-2.407V79.234a2.407 2.407 0 0 1 2.413-2.407h30.954a2.407 2.407 0 0 1 2.412 2.407v23.705a2.407 2.407 0 0 1-2.412 2.407z" fill="#FFAB00"/>
    <path d="M163.25 87.63a3.952 3.952 0 0 1-1.746 3.84c-.513.359-.821.973-.821 1.639v4.556c0 .717-.462 1.332-1.129 1.485-.924.205-1.746-.512-1.746-1.433v-4.66c0-.665-.359-1.228-.872-1.638a4.02 4.02 0 0 1-1.694-3.277c0-2.355 2.053-4.25 4.466-3.993 1.848.256 3.336 1.69 3.542 3.481zm8.88-17.152v6.4h-2.823v-6.4c0-4.761-3.542-8.908-8.265-9.625-.513-.052-.975-.103-1.488-.103-5.39 0-9.805 4.403-9.805 9.78v6.4h-2.823v-6.452c0-6.912 5.646-12.544 12.576-12.544.668 0 1.284.052 1.9.154 6.16.922 10.728 6.246 10.728 12.39z" fill="#061B64"/>
    <path d="M202.827 115.432v18.022a1.947 1.947 0 0 1-1.95 1.946h-82.288c-1.078 0-1.95-.87-1.95-1.946v-18.022c0-1.075.872-1.946 1.95-1.946h82.236c1.13 0 2.002.871 2.002 1.946z" fill="#D2E4FF"/>
    <path d="M132.603 131.15h-8.06a1.838 1.838 0 0 1-1.848-1.843v-9.779c0-1.024.822-1.843 1.848-1.843h8.06c1.026 0 1.848.819 1.848 1.843v9.83c0 .973-.822 1.792-1.848 1.792zm15.605 0h-8.059a1.838 1.838 0 0 1-1.848-1.843v-9.779c0-1.024.821-1.843 1.848-1.843h8.059c1.027 0 1.848.819 1.848 1.843v9.83c-.051.973-.873 1.792-1.848 1.792zm15.554 0h-8.059a1.838 1.838 0 0 1-1.848-1.843v-9.779c0-1.024.821-1.843 1.848-1.843h8.059c1.027 0 1.848.819 1.848 1.843v9.83c0 .973-.821 1.792-1.848 1.792zm15.554 0h-8.059a1.838 1.838 0 0 1-1.848-1.843v-9.779c0-1.024.821-1.843 1.848-1.843h8.059c1.027 0 1.848.819 1.848 1.843v9.83c0 .973-.821 1.792-1.848 1.792zm15.605 0h-8.059a1.838 1.838 0 0 1-1.848-1.843v-9.779c0-1.024.821-1.843 1.848-1.843h8.059c1.027 0 1.848.819 1.848 1.843v9.83c-.051.973-.872 1.792-1.848 1.792z" fill="#fff"/>
    <path d="m130.652 124.955-1.232-.461 1.283-.512c.513-.307.257-1.126-.308-1.126-.257 0-.308.051-1.335.922.206-1.28.206-1.332.206-1.332a.465.465 0 0 0-.206-.409c-.41-.359-1.026-.103-1.026.409 0 0 0 .052.205 1.332-.975-.82-1.027-.82-1.078-.82-.667-.409-1.283.666-.565 1.024l1.232.461-1.283.512c-.513.256-.308 1.127.308 1.127.257 0 .257-.052 1.335-.922-.206 1.28-.206 1.331-.206 1.331 0 .358.308.563.616.563s.616-.256.616-.563c0 0 0-.051-.205-1.331 1.027.819 1.078.922 1.335.922a.624.624 0 0 0 .616-.615c-.052-.256-.103-.41-.308-.512zM146.207 124.955l-1.232-.461 1.283-.512c.205-.102.257-.307.257-.512 0-.102-.052-.205-.103-.307a.564.564 0 0 0-.513-.307c-.103 0-.206.051-.257.051-.051 0-.051.051-1.078.819.205-1.28.205-1.331.205-1.331a.466.466 0 0 0-.205-.41c-.257-.204-.616-.204-.821 0-.103.103-.206.256-.206.41 0 0 0 .051.206 1.331-.976-.819-1.027-.819-1.078-.819-.308-.154-.616-.051-.822.205-.051.102-.102.205-.102.307 0 .205.102.41.308.512l1.232.461-1.284.512c-.205.102-.308.256-.308.512 0 .102.052.205.103.307a.564.564 0 0 0 .513.307c.103 0 .206 0 .257-.051 0 0 .051-.051 1.078-.819-.205 1.28-.205 1.331-.205 1.331 0 .154.051.307.205.41a.586.586 0 0 0 .411.153.582.582 0 0 0 .41-.153c.103-.103.206-.256.206-.41 0 0 0-.051-.206-1.331 1.027.819 1.027.819 1.078.819.103.051.154.051.257.051.205 0 .411-.102.565-.307.051-.102.051-.205.051-.307.103-.205 0-.359-.205-.461zM161.76 124.955l-1.232-.461 1.283-.512c.205-.102.257-.307.257-.512 0-.102-.052-.205-.103-.307a.564.564 0 0 0-.513-.307c-.103 0-.206.051-.257.051-.051 0-.051.051-1.078.819.205-1.28.205-1.331.205-1.331a.466.466 0 0 0-.205-.41c-.257-.204-.616-.204-.821 0-.103.103-.206.256-.206.41 0 0 0 .051.206 1.331-.976-.819-1.027-.819-1.078-.819-.308-.154-.616-.051-.822.205-.051.102-.102.205-.102.307 0 .205.102.41.308.512l1.232.461-1.284.512c-.205.102-.308.256-.308.512 0 .102.052.205.103.307a.564.564 0 0 0 .513.307c.103 0 .206 0 .257-.051 0 0 .051-.051 1.078-.819-.205 1.28-.205 1.331-.205 1.331 0 .154.051.307.205.41a.586.586 0 0 0 .411.153.582.582 0 0 0 .41-.153c.103-.103.206-.256.206-.41 0 0 0-.051-.206-1.331 1.027.819 1.027.819 1.078.819.103.051.154.051.257.051.205 0 .411-.102.565-.307.051-.102.051-.205.051-.307.103-.205 0-.359-.205-.461zM177.365 124.955l-1.232-.461 1.283-.512c.206-.102.257-.307.257-.512 0-.102-.051-.205-.103-.307a.563.563 0 0 0-.513-.307c-.103 0-.205.051-.257.051-.051 0-.051.051-1.078.819.206-1.28.206-1.331.206-1.331a.467.467 0 0 0-.206-.41c-.256-.204-.616-.204-.821 0-.103.103-.205.256-.205.41 0 0 0 .051.205 1.331-.975-.819-1.027-.819-1.078-.819-.308-.154-.616-.051-.821.205-.052.102-.103.205-.103.307 0 .205.103.41.308.512l1.232.461-1.283.512c-.206.102-.308.256-.308.512 0 .102.051.205.102.307a.565.565 0 0 0 .514.307c.102 0 .205 0 .256-.051 0 0 .052-.051 1.078-.819-.205 1.28-.205 1.331-.205 1.331 0 .154.051.307.205.41a.586.586 0 0 0 .411.153.586.586 0 0 0 .411-.153c.102-.103.205-.256.205-.41 0 0 0-.051-.205-1.331 1.026.819 1.026.819 1.078.819.102.051.154.051.256.051.206 0 .411-.102.565-.307.051-.102.051-.205.051-.307.052-.205-.051-.359-.205-.461zM192.92 124.955l-1.232-.461 1.283-.512c.205-.102.257-.307.257-.512 0-.102-.052-.205-.103-.307a.564.564 0 0 0-.513-.307c-.103 0-.206.051-.257.051-.051 0-.051.051-1.078.819.205-1.28.205-1.331.205-1.331a.466.466 0 0 0-.205-.41c-.257-.204-.616-.204-.821 0-.103.103-.206.256-.206.41 0 0 0 .051.206 1.331-.976-.819-1.027-.819-1.078-.819-.308-.154-.616-.051-.822.205-.051.102-.102.205-.102.307 0 .205.102.41.308.512l1.232.461-1.284.512c-.205.102-.308.256-.308.512 0 .102.052.205.103.307a.564.564 0 0 0 .513.307c.103 0 .206 0 .257-.051 0 0 .051-.051 1.078-.819-.205 1.28-.205 1.331-.205 1.331 0 .154.051.307.205.41a.586.586 0 0 0 .411.153.582.582 0 0 0 .41-.153c.103-.103.206-.256.206-.41 0 0 0-.051-.206-1.331 1.027.819 1.027.819 1.078.819.103.051.154.051.257.051.205 0 .411-.102.565-.307.051-.102.051-.205.051-.307.103-.205 0-.359-.205-.461z" fill="#061B64"/>
    <path d="M181.985 159.362h-44.506c-1.899 0-3.491-1.536-3.491-3.482v-10.496a3.49 3.49 0 0 1 3.491-3.482h44.506c1.899 0 3.491 1.536 3.491 3.482v10.496c0 1.894-1.592 3.482-3.491 3.482z" fill="#EC8936"/>
    <path d="M147.183 147.432c-.103.051-.154.154-.257.307l-2.053 5.171-2.054-5.171c-.051-.102-.154-.205-.205-.307a.624.624 0 0 0-.821.051c-.103.103-.154.256-.154.461 0 .102 0 .154.051.256l2.361 5.734c.206.461.514.564.77.564h.206c.256 0 .564-.103.77-.564l2.361-5.734c.051-.051.051-.154.051-.205 0-.205-.051-.358-.154-.461-.256-.256-.616-.307-.872-.102zm6.93 1.126a.582.582 0 0 0 .41-.153.58.58 0 0 0 .154-.41.578.578 0 0 0-.154-.409.579.579 0 0 0-.41-.154h-3.85a.627.627 0 0 0-.462.205c-.103.102-.154.256-.154.461v5.785c0 .154.051.307.205.461a.654.654 0 0 0 .462.205h3.85a.583.583 0 0 0 .411-.154.582.582 0 0 0 .154-.409.583.583 0 0 0-.154-.41.587.587 0 0 0-.411-.154h-3.183v-1.74h2.875a.587.587 0 0 0 .411-.154.583.583 0 0 0 .154-.41.582.582 0 0 0-.154-.409.583.583 0 0 0-.411-.154h-2.875v-1.741h3.132v-.256zm7.648 2.1c.257-.359.36-.717.36-1.178 0-.614-.257-1.178-.719-1.536-.462-.358-1.181-.563-2.053-.563h-2.208a.627.627 0 0 0-.462.205c-.102.102-.154.256-.154.46v5.837c0 .154.052.307.206.461a.591.591 0 0 0 .872 0 .647.647 0 0 0 .206-.461v-2.048h1.796c.411 0 .668.103.873.256.205.205.308.41.359.615.052.256.103.563.103.819v.307c0 .205.051.307.154.461.103.102.257.153.462.153a.629.629 0 0 0 .462-.204.648.648 0 0 0 .205-.461v-.461c0-.461-.102-.922-.256-1.382a1.761 1.761 0 0 0-.668-.82c.103-.051.308-.256.462-.46zm-.924-1.127c0 .307-.154.563-.41.768-.308.205-.668.307-1.181.307h-1.54v-2.048h1.489c.616 0 1.078.103 1.283.256.257.205.359.41.359.717zm3.337-2.048c-.103.103-.154.256-.154.461v5.888c0 .154.051.307.205.461a.654.654 0 0 0 .462.205.833.833 0 0 0 .462-.154.647.647 0 0 0 .206-.461v-5.888a.628.628 0 0 0-.206-.461c-.308-.307-.718-.256-.975-.051zm7.597-.102h-3.747a.627.627 0 0 0-.462.205c-.103.102-.154.256-.154.46v5.837c0 .154.051.307.205.461a.654.654 0 0 0 .462.205.825.825 0 0 0 .462-.154.647.647 0 0 0 .206-.461v-2.355h2.772a.582.582 0 0 0 .41-.153.58.58 0 0 0 .154-.41.58.58 0 0 0-.154-.41.582.582 0 0 0-.41-.153h-2.772v-1.741h3.08a.579.579 0 0 0 .41-.154.578.578 0 0 0 .154-.409.58.58 0 0 0-.154-.41c-.154-.307-.256-.358-.462-.358zm7.341.102c-.257-.307-.77-.256-.975.103l-1.848 2.662-1.848-2.662c-.154-.205-.308-.308-.565-.308a.63.63 0 0 0-.462.205c-.103.103-.154.256-.154.461 0 .102.051.256.103.358l2.258 3.175v2.355c0 .154.052.307.206.461.102.102.256.153.462.153a.629.629 0 0 0 .462-.204.652.652 0 0 0 .205-.461v-2.355l2.259-3.175a.95.95 0 0 0 .102-.358c0-.103-.051-.256-.205-.41z" fill="#fff"/>
    <path d="M70.234 210.92v-1.639h-9.65c-.104 3.124-.36 9.012-.463 9.012H75.83c.565-5.12-5.595-7.373-5.595-7.373z" fill="#5291E3"/>
    <path d="M75.624 216.091c.205.666.308 1.434.205 2.253H60.121c.051 0 .103-.922.154-2.253h15.349z" fill="#061B64"/>
    <path d="M35.224 210.92v-1.639h-9.65c-.103 3.124-.36 9.012-.463 9.012H40.82c.565-5.12-5.595-7.373-5.595-7.373z" fill="#5291E3"/>
    <path d="M40.614 216.091c.205.666.308 1.434.205 2.253H25.111c.052 0 .103-.922.154-2.253h15.349zM71.311 210.357l-3.798-72.551-20.431-.409 12.885 72.96c0 .819 11.344.819 11.344 0z" fill="#061B64"/>
    <path d="m36.456 210.971 19.763-76.134-22.381 1.894-8.676 74.24c-.051.768 11.294.768 11.294 0z" fill="#061B64"/>
    <path d="m65.408 111.592 14.681 5.325 21.15-11.674s2.823.819 4.363-.87c1.54-1.69-.975-4.045-.975-4.045s4.62-3.533 4.261-4.66c-.308-1.177-6.468 3.431-6.468 3.431s.308-1.638-.206-2.15c-.564-.564-1.899 2.713-1.899 2.713l-20.739 4.762-6.416-5.325-7.752 12.493z" fill="#fff"/>
    <path d="m80.14 117.173-.102-.052-14.99-5.427 8.111-13.005 6.571 5.428 20.482-4.71c.36-.871 1.181-2.663 1.848-2.766.154-.05.308 0 .411.154.41.41.41 1.229.359 1.792 1.643-1.178 5.082-3.584 6.057-3.277.154.052.257.154.309.359.359 1.177-3.029 3.89-4.159 4.761.924.973 2.054 2.867.77 4.199-1.488 1.587-3.952 1.075-4.517.972l-21.15 11.572zm-14.321-5.735 14.27 5.171 21.098-11.622.103.051c.051 0 2.669.768 4.107-.768 1.078-1.126-.052-2.816-1.181-3.891l.257-.205c2.156-1.638 4.363-3.789 4.209-4.403-.41-.205-3.182 1.434-6.057 3.584l-.565.41.154-.666c.103-.563.205-1.587-.154-1.946-.205.052-.924 1.28-1.437 2.612l-.051.102-20.996 4.813-6.314-5.223-7.443 11.981z" fill="#061B64"/>
    <path d="m58.22 100.738 10.627 8.908c3.336-2.867 5.492-7.168 5.698-10.445-3.85-3.276-6.725-6.041-11.294-8.908l-5.03 10.445z" fill="#5291E3"/>
    <path d="M30.347 92.187c1.54-3.84 11.396-6.297 11.396-6.297h13.706s10.01 3.737 13.603 10.803c2.413 4.813-.462 43.161-.462 43.161 0 3.584-36.036 3.482-36.036-.102-.051.051-6.981-35.584-2.207-47.565z" fill="#5291E3"/>
    <path d="m71.517 107.24-.257-.103h-.256c0-.665-1.284-7.782-5.442-11.263l.309-.41c4.568 3.84 5.749 11.52 5.646 11.776z" fill="#061B64"/>
    <path d="M44.873 68.686s1.284 11.418-3.13 17.255c0 0 4.106 7.065 10.215 6.86 6.108-.153 7.7-4.454 7.238-5.017-.462-.563-5.698-3.533-5.698-9.78 0-6.246-8.624-9.318-8.624-9.318z" fill="#fff"/>
    <path d="M51.754 93.058c-6.057 0-10.061-6.708-10.267-7.015l-.102-.153.102-.154c3.234-4.25 3.594-12.237 3.03-17.46 4.465 1.588 9.188 4.967 9.188 9.678 0 5.17 3.696 8.038 5.082 9.113.308.205.462.359.564.461.257.307.103 1.024-.154 1.536-.82 1.792-3.182 3.789-7.289 3.891 0 .103-.051.103-.154.103zm-9.702-7.168c.616.972 4.517 6.758 9.907 6.605 4.62-.103 6.314-2.612 6.725-3.38.36-.716.36-1.126.308-1.228-.051-.052-.257-.205-.462-.41-1.437-1.127-5.287-4.096-5.287-9.523 0-5.274-6.417-8.243-8.11-8.91.204 2.151.82 11.572-3.08 16.846z" fill="#061B64"/>
    <path d="M44.67 66.792c.102 2.458 1.077 6.195 2.515 8.653 1.54 2.662 4.671 4.813 8.521 4.25 5.339-.82 3.799-14.9 2.002-20.737-.36-1.177-.77-1.996-1.18-2.355-2.362-1.945-10.062 1.28-11.037 3.738-.719 1.843-.924 4.454-.822 6.451z" fill="#fff"/>
    <path d="M54.422 80.053c-3.542 0-6.211-2.304-7.495-4.455l-.051-.05c-1.438-2.458-2.413-6.145-2.515-8.705-.103-1.894.102-4.557.872-6.553 1.027-2.56 8.932-5.888 11.448-3.84.41.358.872 1.177 1.232 2.457 1.386 4.455 2.926 15.053.256 19.303-.616.972-1.437 1.587-2.464 1.74-.41.103-.821.103-1.283.103zm-6.981-4.66c1.334 2.253 4.311 4.66 8.213 4.045.821-.153 1.54-.614 2.104-1.484 2.464-3.943 1.13-14.234-.308-18.893-.462-1.536-.872-2.048-1.078-2.202-2.155-1.792-9.702 1.28-10.626 3.635-.718 1.895-.924 4.506-.82 6.35.102 2.457 1.077 6.092 2.514 8.55z" fill="#061B64"/>
    <path d="M38.765 56.45c-3.593 5.734 1.078 14.438 6.109 19.61l2.31-.615c-1.437-2.458-2.464-6.144-2.515-8.653 0 0-.103-2.611.924-2.304 1.078.358 1.232 2.201 1.232 2.201h1.334s-.102-7.014 1.18-7.27c.77-.153 5.186.666 8.933 1.075 1.745.205 5.441.615 6.673-4.864 1.54-6.656-3.182-7.475-6.57-7.219-9.96.666-17.813 5.171-19.61 8.038zM51.6 127.566c0 .82.667 1.434 1.437 1.434h33.931a1.433 1.433 0 1 0 0-2.867H53.036c-.77 0-1.437.665-1.437 1.433z" fill="#061B64"/>
    <path d="M67.82 126.133h20.945c1.13 0 2.053-.717 2.361-1.792l4.26-16.282c.411-1.536-.77-3.021-2.36-3.021H72.08c-1.078 0-2.053.768-2.36 1.792l-4.262 16.282c-.359 1.536.822 3.021 2.362 3.021z" fill="#fff"/>
    <path d="M88.816 126.389H67.821a2.63 2.63 0 0 1-2.105-1.024c-.513-.666-.667-1.485-.462-2.304l4.26-16.282a2.68 2.68 0 0 1 2.567-1.997h20.944c1.746 0 3.029 1.69 2.618 3.379l-4.26 16.282a2.649 2.649 0 0 1-2.567 1.946zm-16.683-21.146c-.976 0-1.848.666-2.105 1.638l-4.26 16.282c-.155.666-.052 1.331.359 1.894.41.512 1.026.82 1.694.82h20.944c.975 0 1.848-.666 2.104-1.639l4.261-16.281a2.16 2.16 0 0 0-2.105-2.714H72.133z" fill="#061B64"/>
    <path d="M86.866 123.88c-.154.717-.206 1.536 0 2.253h1.95c1.13 0 2.054-.717 2.362-1.792l4.26-16.282c.411-1.536-.77-3.021-2.361-3.021h-6.981c1.642.922 3.131 2.048 3.952 3.738 1.181 2.406.616 5.274-.308 7.731-.975 2.407-2.361 4.762-2.874 7.373z" fill="#A5D0FA"/>
    <path d="M87.02 129.307H53.089a1.707 1.707 0 0 1-1.694-1.689c0-.922.77-1.69 1.694-1.69h33.93c.925 0 1.695.768 1.695 1.69 0 .921-.77 1.689-1.694 1.689zm-33.931-2.918c-.668 0-1.181.563-1.181 1.177 0 .666.564 1.178 1.18 1.178H87.02c.667 0 1.18-.563 1.18-1.178 0-.665-.564-1.177-1.18-1.177H53.089z" fill="#061B64"/>
    <path d="M88.816 126.389H67.821a2.63 2.63 0 0 1-2.105-1.024c-.513-.666-.667-1.485-.462-2.304l4.26-16.282a2.695 2.695 0 0 1 2.619-1.997h20.944c1.745 0 3.028 1.69 2.618 3.379l-4.261 16.282c-.36 1.126-1.386 1.946-2.618 1.946zm-16.683-21.146c-.976 0-1.848.666-2.105 1.638l-4.26 16.282c-.155.666-.052 1.331.359 1.894.41.512 1.026.82 1.694.82h20.944c.975 0 1.848-.666 2.104-1.639l4.261-16.281a2.16 2.16 0 0 0-2.105-2.714H72.133z" fill="#061B64"/>
    <path d="M79.525 115.79c-.102.922.616 1.69 1.54 1.69s1.746-.768 1.848-1.69c.103-.921-.616-1.689-1.54-1.689-.975.051-1.796.768-1.848 1.689z" fill="#5291E3"/>
    <path d="M23.57 129.307c2.361 3.482 32.392 2.868 32.392 2.868s8.162 3.328 10.882-.717c2.72-4.045-4.517-3.891-4.517-3.891s1.54-.615.565-2.048c-.976-1.434-6.417.972-6.417.972l-20.893-6.809.975-10.343-13.295.41c.052-.051-2.464 15.36.308 19.558z" fill="#fff"/>
    <path d="M62.174 133.71c-2.875 0-5.8-1.126-6.263-1.28-1.848.052-30.184.564-32.545-2.969-2.823-4.25-.41-19.149-.308-19.763l.051-.205 13.809-.41-.975 10.445 20.584 6.707c.873-.409 5.596-2.355 6.622-.87.36.512.462.973.308 1.433a1.058 1.058 0 0 1-.308.512c1.284.052 3.696.359 4.364 1.69.359.717.205 1.587-.463 2.56-1.078 1.69-2.925 2.15-4.876 2.15zm-6.16-1.792c.154.052 8.06 3.226 10.626-.563.564-.819.719-1.536.41-2.048-.667-1.229-3.644-1.485-4.722-1.433H60.89l1.335-.512s.565-.205.719-.666c.102-.256 0-.614-.257-.973-.616-.921-4.055.154-6.108 1.075h-.052l-.102-.051-21.047-6.912.975-10.291-12.782.358c-.308 1.844-2.259 15.36.257 19.2 1.848 2.765 23.819 2.919 32.134 2.765l.052.051z" fill="#061B64"/>
    <path d="M31.63 90.498s-7.083 3.89-8.88 19.046c.103.922 14.579 2.048 14.476 1.126-.051-.051 3.747-16.588-5.595-20.172z" fill="#5291E3"/>
    <path d="M34.864 111.234c-3.953 0-12.27-.666-12.372-1.69l.514-.051c0-.051 0-.051-.052-.051.719.768 12.885 1.74 13.963 1.126.102-.563 2.207-10.65-.719-15.82l.462-.257c3.08 5.376.924 15.463.77 16.179 0 .103-.051.308-.36.41-.153.051-.358.102-.666.102-.36.052-.873.052-1.54.052zM51.445 66.69c.397 0 .719-.436.719-.973 0-.538-.322-.973-.719-.973-.397 0-.718.435-.718.973 0 .537.321.972.718.972zM56.937 66.229c.397 0 .72-.436.72-.973 0-.537-.323-.973-.72-.973-.396 0-.718.436-.718.973 0 .537.322.973.718.973zM55.09 70.222l.052-.512c.205 0 .41-.307.205-.716-.205-.41-1.232-1.485-1.232-3.43h.514c0 2.457 1.642 2.969 1.283 4.095a.933.933 0 0 1-.821.563zM53.344 74.472c-.308 0-.616-.051-.873-.154-.513-.256-.975-.716-1.13-1.228l.463-.154c.154.41.462.768.872.922.411.153.873.204 1.284 0l.205.46a2.133 2.133 0 0 1-.821.154zM215.764 62.952v17.1c0 .973.821 1.793 1.796 1.793h4.056v3.532a.807.807 0 0 0 1.334.615l5.339-4.199h32.545c.976 0 1.797-.819 1.797-1.792v-17.1c0-.973-.821-1.792-1.797-1.792H217.56c-.975.05-1.796.87-1.796 1.843z" fill="#061B64"/>
    <path d="m232.139 72.731-2.002-.768 2.053-.819c.308-.205.462-.46.462-.82 0-.153-.051-.306-.154-.511a.986.986 0 0 0-.821-.461c-.206 0-.36.051-.462.102-.052 0-.103.052-1.746 1.383.308-2.048.308-2.1.308-2.15 0-.257-.102-.461-.308-.666a.962.962 0 0 0-1.334 0c-.206.205-.308.41-.308.665 0 .052 0 .103.308 2.15-1.592-1.28-1.694-1.33-1.694-1.33-.462-.256-.976-.103-1.284.358-.102.154-.102.307-.102.512 0 .358.154.614.462.82l2.002.767-2.002.768c-.308.154-.462.41-.462.768 0 .205.051.359.154.512.205.307.513.461.872.461a.972.972 0 0 0 .411-.102c.051 0 .103-.052 1.745-1.383-.308 2.048-.308 2.1-.308 2.15 0 .257.103.461.308.666.206.205.411.256.668.256.256 0 .462-.102.667-.256.205-.205.308-.41.308-.665 0-.052 0-.103-.308-2.15 1.591 1.28 1.694 1.33 1.745 1.382.154.05.257.102.411.102a.955.955 0 0 0 .873-.512c.102-.154.102-.307.102-.46-.102-.308-.256-.564-.564-.769zM242.508 72.731l-2.002-.768 2.053-.819c.308-.205.462-.46.462-.82 0-.153-.051-.306-.154-.511a.986.986 0 0 0-.821-.461c-.206 0-.36.051-.462.102-.052 0-.103.052-1.746 1.383.308-2.048.309-2.1.309-2.15 0-.257-.103-.461-.309-.666a.962.962 0 0 0-1.334 0c-.206.205-.308.41-.308.665 0 .052 0 .103.308 2.15-1.592-1.28-1.694-1.33-1.694-1.33-.462-.256-.975-.103-1.283.358-.103.154-.103.307-.103.512 0 .358.154.614.462.82l2.002.767-2.002.768c-.308.154-.462.41-.462.768 0 .205.051.359.154.512.205.307.513.461.872.461a.972.972 0 0 0 .411-.102c.051 0 .103-.052 1.746-1.383-.308 2.048-.309 2.1-.309 2.15 0 .257.103.461.309.666.205.205.41.256.667.256.256 0 .462-.102.667-.256.205-.205.308-.41.308-.665 0-.052 0-.103-.308-2.15 1.591 1.28 1.694 1.33 1.746 1.382.154.05.256.102.41.102a.954.954 0 0 0 .873-.512c.103-.154.102-.307.102-.46-.102-.308-.256-.564-.564-.769zM252.877 72.731l-2.002-.768 2.053-.819c.308-.205.462-.46.462-.82 0-.153-.051-.306-.154-.511a.986.986 0 0 0-.821-.461 1.03 1.03 0 0 0-.462.102c-.051 0-.103.052-1.745 1.383.308-2.048.308-2.1.308-2.15 0-.257-.103-.461-.308-.666a.963.963 0 0 0-1.335 0c-.205.205-.308.41-.308.665 0 .052 0 .103.308 2.15-1.591-1.28-1.694-1.33-1.694-1.33-.462-.256-.975-.103-1.283.358-.103.154-.103.307-.103.512 0 .358.154.614.462.82l2.002.767-2.002.768c-.308.154-.462.41-.462.768 0 .205.051.359.154.512.205.307.513.461.873.461a.963.963 0 0 0 .41-.102c.052 0 .103-.052 1.746-1.383-.308 2.048-.308 2.1-.308 2.15 0 .257.102.461.308.666.205.205.41.256.667.256.257 0 .462-.102.667-.256.206-.205.308-.41.308-.665 0-.052 0-.103-.308-2.15 1.592 1.28 1.694 1.33 1.746 1.382.154.05.256.102.41.102.36 0 .668-.154.873-.512.103-.154.103-.307.103-.46-.052-.308-.206-.564-.565-.769z" fill="#fff"/>
    <path d="M66.742 44.93c3.132.972 6.314.46 8.88-1.178l-1.59-2.15.359-.256.36-.256 1.59 2.15c1.643-1.28 2.927-3.02 3.594-5.12 1.796-5.53-1.284-11.469-6.828-13.21-5.543-1.792-11.498 1.28-13.243 6.81-1.746 5.478 1.334 11.418 6.878 13.21z" fill="#BDD6FF"/>
    <path d="m80.756 47.745-.668.461-5.492-7.424.616-.46 5.544 7.423z" fill="#BDD6FF"/>
    <path d="M74.134 38.683H65.1c-.565 0-1.078-.46-1.078-1.075v-5.94c0-.563.462-1.075 1.078-1.075h9.034c.565 0 1.078.461 1.078 1.076v5.99c-.051.563-.513 1.024-1.078 1.024zm-9.034-7.27c-.154 0-.308.102-.308.307v5.99c0 .154.153.307.308.307h9.034c.154 0 .308-.153.308-.307V31.67c0-.154-.154-.308-.308-.308H65.1v.052z" fill="#fff"/>
    <path d="M69.616 35.714c-.256 0-.462-.103-.667-.256l-4.517-3.943.513-.563 4.517 3.942c.103.103.257.103.308 0l4.518-3.942.513.563-4.517 3.943c-.206.153-.462.256-.668.256z" fill="#fff"/>
    <path d="M153.239 199.758h-16.221c-.103 0-.206-.102-.206-.205 0-.102.103-.204.206-.204h16.221c.103 0 .205.102.205.204a.22.22 0 0 1-.205.205zm0 8.039h-16.221c-.103 0-.206-.103-.206-.205 0-.103.103-.205.206-.205h16.221a.22.22 0 0 1 .205.205.22.22 0 0 1-.205.205zm-2.926-3.994h-22.895a.22.22 0 0 1-.205-.205c0-.102.103-.205.205-.205h22.895a.22.22 0 0 1 .205.205.22.22 0 0 1-.205.205z" fill="#C6E2FA"/>
    <path d="M140.407 199.758c-.103 0-.206-.102-.206-.205v-3.379c0-.102.103-.205.206-.205.102 0 .205.103.205.205v3.379c-.052.154-.103.205-.205.205zm5.698 4.045c-.103 0-.206-.102-.206-.205v-3.993c0-.103.103-.205.206-.205a.22.22 0 0 1 .205.205v3.993c-.051.103-.103.205-.205.205zm-4.364 3.84a.22.22 0 0 1-.205-.205v-3.84c0-.102.103-.205.205-.205.103 0 .206.103.206.205v3.891c0 .103-.103.154-.206.154zM260.063 48.309h-16.221c-.103 0-.206-.103-.206-.205s.103-.205.206-.205h16.221a.22.22 0 0 1 .205.205.22.22 0 0 1-.205.205zm0 7.987h-16.221c-.103 0-.206-.102-.206-.205 0-.102.103-.205.206-.205h16.221a.22.22 0 0 1 .205.205.22.22 0 0 1-.205.205zm-2.926-3.994h-22.895c-.102 0-.205-.102-.205-.204 0-.103.103-.205.205-.205h22.895a.22.22 0 0 1 .205.205.22.22 0 0 1-.205.204z" fill="#C6E2FA"/>
    <path d="M247.178 48.309a.22.22 0 0 1-.205-.205v-3.38a.22.22 0 0 1 .205-.204.22.22 0 0 1 .205.205v3.379a.22.22 0 0 1-.205.205zm5.698 3.993a.22.22 0 0 1-.205-.204v-3.994a.22.22 0 0 1 .205-.205.22.22 0 0 1 .205.205v3.994a.22.22 0 0 1-.205.204zm-4.312 3.892a.22.22 0 0 1-.205-.205v-3.891a.22.22 0 0 1 .205-.205.22.22 0 0 1 .205.205v3.89a.22.22 0 0 1-.205.206z" fill="#C6E2FA"/>
</svg>
