<svg width="308" height="242" viewBox="0 0 308 242" fill="none" xmlns="http://www.w3.org/2000/svg">
    <g clip-path="url(#9ckp4a6pla)">
        <path opacity=".3" d="M44.865 211.167h221.452c11.242 0 20.071-9.24 19.045-19.969-.822-8.829-4.98-17.351-12.012-22.946-4.569-3.645-10.164-6.16-13.86-10.677-7.7-9.497-3.85-23.614 2.464-34.034 6.16-10.164 14.322-19.353 18.223-30.492 3.901-11.14 2.053-25.616-8.367-31.673-6.725-3.901-15.092-3.337-22.946-3.542-7.854-.257-16.684-2.105-20.688-8.675-3.388-5.647-2.156-13.142-5.8-18.634-5.339-8.008-17.556-7.341-26.899-4.415-18.737 5.8-37.011 6.93-56.621 7.803-15.297.718-30.132-5.031-45.43-5.904C73.406 26.88 36.703 38.43 24.23 74.312c-2.464 7.135 1.848 18.377 5.955 24.743 4.26 6.519 11.858 10.626 15.554 17.504 5.338 9.959.821 22.228-5.442 31.622-6.262 9.394-14.424 18.12-16.94 29.106-2.207 9.548.462 20.02 6.982 27.463l.051.051c3.593 4.107 8.932 6.366 14.476 6.366z" fill="#D2E4FF"/>
        <path d="M225.302 40.175H209.08c-.102 0-.205-.102-.205-.205s.103-.205.205-.205h16.222c.102 0 .205.102.205.205s-.103.205-.205.205zm0 8.008H209.08c-.102 0-.205-.102-.205-.205s.103-.205.205-.205h16.222c.102 0 .205.102.205.205s-.103.205-.205.205zm-2.978-4.004h-22.946c-.102 0-.205-.102-.205-.205s.103-.205.205-.205h22.946c.103 0 .206.102.206.205s-.103.205-.206.205z" fill="#76B0F1"/>
        <path d="M212.417 40.175c-.102 0-.205-.102-.205-.205v-3.44c0-.102.103-.205.205-.205.103 0 .206.103.206.206v3.439c0 .103-.103.205-.206.205zm5.698 4.004c-.102 0-.205-.102-.205-.205V39.97c0-.103.103-.205.205-.205.103 0 .206.102.206.205v4.004c0 .103-.103.205-.206.205zm-4.363 3.902a.22.22 0 0 1-.205-.206v-3.901a.22.22 0 0 1 .205-.205.22.22 0 0 1 .205.205v3.901a.22.22 0 0 1-.205.206zm-93.529 112.163h-18.788c-.103 0-.206-.103-.206-.205 0-.103.103-.206.206-.206h18.788c.102 0 .205.103.205.206 0 .102-.103.205-.205.205zm0 9.343h-18.788a.222.222 0 0 1-.206-.206c0-.102.103-.205.206-.205h18.788c.102 0 .205.103.205.205 0 .103-.103.206-.205.206zm-3.44-4.672h-26.59a.22.22 0 0 1-.206-.205.22.22 0 0 1 .206-.205h26.59c.103 0 .206.102.206.205s-.103.205-.206.205z" fill="#76B0F1"/>
        <path d="M105.284 160.244c-.102 0-.205-.103-.205-.205v-3.953a.22.22 0 0 1 .205-.205c.103 0 .206.102.206.205v3.953c0 .102-.103.205-.206.205zm6.622 4.671a.22.22 0 0 1-.205-.205v-4.671c0-.103.103-.206.205-.206.103 0 .206.103.206.206v4.671c-.052.103-.103.205-.206.205zm-5.03 4.518a.222.222 0 0 1-.206-.206v-4.517c0-.103.103-.205.206-.205a.22.22 0 0 1 .205.205v4.517c-.051.103-.103.206-.205.206z" fill="#76B0F1"/>
        <path d="m64.115 107.936.565.718h-.36l-.205-.718z" fill="#EC8936"/>
        <path d="M71.25 210.499v-1.745H60.88c-.153 3.337-.41 9.702-.461 9.702h16.889c.564-5.544-6.058-7.957-6.058-7.957z" fill="#76B0F1"/>
        <path d="M77.05 216.043c.206.719.309 1.54.258 2.413h-16.89c.052 0 .104-.975.155-2.413H77.05z" fill="#060405"/>
        <path d="M45.02 210.499v-1.745H34.598c-.154 3.337-.41 9.702-.462 9.702h16.888c.565-5.544-6.006-7.957-6.006-7.957z" fill="#76B0F1"/>
        <path d="M50.769 216.043c.205.719.308 1.54.256 2.413H34.137c.051 0 .102-.975.154-2.413h16.478zm-16.632-5.492c0 .821 12.166.821 12.166 0l7.905-51.898 6.006 51.282c0 .872 12.166.872 12.166 0l-1.386-71.97H37.217l-3.08 72.586z" fill="#060405"/>
        <path d="M86.959 103.007c-1.18 3.747-7.597 3.953-12.782 4.466l-2.72-13.039 4.209-.05-7.7-14.169s-2.516-.873-2.824-1.745c-.308-.924 1.386-.976 1.386-.976s-8.213-6.006-2.567-7.546c5.698-1.54 7.752 5.236 7.752 5.236s18.531 17.556 15.246 27.823z" fill="#fff"/>
        <path d="M74.228 107.781c-.102 0-.205-.102-.256-.205L71.25 94.537c0-.051 0-.154.051-.205.051-.051.103-.103.205-.103l3.8-.051-7.444-13.706c-.513-.206-2.618-.975-2.875-1.9-.103-.359 0-.564.103-.718.205-.257.565-.41.924-.513-1.284-1.027-4.517-3.8-4.158-5.852.154-.822.873-1.438 2.156-1.797 5.544-1.489 7.802 4.62 8.008 5.339 1.232 1.18 18.428 17.915 15.195 28.079-1.13 3.542-6.674 4.055-11.55 4.517-.462.052-.924.103-1.438.154zm-2.412-13.09 2.566 12.526c.41-.052.822-.103 1.232-.103 4.723-.462 10.061-.924 11.088-4.158 3.183-10.01-14.938-27.412-15.143-27.618-.052-.05-.052-.05-.052-.102-.102-.257-2.053-6.52-7.443-5.082-1.078.308-1.642.77-1.796 1.386-.309 1.796 3.08 4.722 4.414 5.698.103.051.103.154.103.308-.051.102-.103.154-.257.205-.36 0-.975.103-1.13.36-.05.05-.05.102-.05.256.153.565 1.745 1.283 2.669 1.591.051 0 .103.052.154.103l7.7 14.168c.051.103.051.154 0 .257-.051.102-.103.102-.206.102l-3.85.103z" fill="#060405"/>
        <path d="M74.792 108.705c-4.774.719-8.727 0-10.113-.051l-.564-.719-3.85-12.422 3.696-5.082 8.829 2.412c2.618 3.85 3.388 11.294 2.002 15.862z" fill="#EC8936"/>
        <path d="M35.83 91.611c2.31-3.85 28.08-4.517 32.495 1.592 4.568 6.314 3.593 48.202 3.593 48.202.308 4.26-37.32 4.466-37.627.205 0-.051-.822-46.046 1.54-49.999z" fill="#EC8936"/>
        <path d="M49.948 142.432h8.983c.257 0 .462-.154.616-.36l6.622-13.552c.205-.462-.103-.924-.616-.924H56.57c-.257 0-.462.154-.616.36l-6.622 13.552c-.206.41.154.924.616.924z" fill="#fff"/>
        <path d="M58.93 142.688h-8.983c-.308 0-.616-.154-.77-.411-.154-.256-.205-.616-.05-.872l6.621-13.552a.915.915 0 0 1 .822-.514h8.983c.308 0 .616.154.77.411.154.257.205.616.051.873l-6.622 13.552a.914.914 0 0 1-.821.513zm-2.36-14.887a.432.432 0 0 0-.36.206l-6.622 13.552c-.051.102-.051.256 0 .41a.432.432 0 0 0 .36.206h8.983a.432.432 0 0 0 .36-.206l6.621-13.552c.051-.102.051-.256 0-.41a.432.432 0 0 0-.36-.206H56.57z" fill="#060405"/>
        <path d="M22.843 118.818c.308 5.082 24.537 16.427 24.537 16.427s5.544 8.11 10.216 4.158c4.62-3.953-4.21-6.109-4.21-6.109l1.181-2.464c-.051-1.437-3.696.513-3.696.513l-15.4-13.603 3.593-6.211-12.012-5.493c-.102.051-4.414 9.651-4.209 12.782z" fill="#fff"/>
        <path d="M54.773 140.789c-.206 0-.411 0-.617-.052-3.49-.462-6.57-4.722-6.98-5.287-1.644-.77-24.282-11.499-24.59-16.632-.205-3.183 3.953-12.474 4.159-12.833.05-.052.102-.103.153-.154h.206l12.012 5.492.154.154c.051.052 0 .154 0 .206l-3.542 6.057 15.092 13.347c.718-.36 2.72-1.335 3.542-.873.154.103.36.257.36.667 0 .052 0 .103-.052.103l-1.078 2.207c1.13.308 4.877 1.489 5.39 3.594.205.924-.257 1.899-1.386 2.874a4.184 4.184 0 0 1-2.823 1.13zM23.1 118.818c.308 4.877 24.127 16.119 24.383 16.221.052 0 .103.052.103.103.051.051 3.234 4.671 6.673 5.133 1.13.154 2.208-.154 3.132-.975.975-.821 1.386-1.643 1.232-2.361-.514-2.105-5.288-3.286-5.34-3.286-.05 0-.153-.051-.153-.154-.052-.051-.052-.154 0-.205l1.18-2.413c0-.102-.05-.154-.102-.154-.462-.256-2.156.411-3.234.976-.103.051-.205.051-.308-.052l-15.4-13.603c-.103-.103-.103-.205-.051-.308l3.439-5.955-11.55-5.338c-.668 1.488-4.21 9.599-4.004 12.371z" fill="#060405"/>
        <path d="M37.32 90.482c-.309.205-3.491 1.437-6.11 5.39-1.847 2.823-5.646 10.831-5.646 10.831-1.13 1.335 10.729 10.37 12.115 8.624 0 0 5.338-8.316 5.544-12.782.308-5.698-5.904-12.063-5.904-12.063z" fill="#EC8936"/>
        <path d="M37.113 115.789h-.102c-2.464-.154-9.805-5.287-11.396-7.956a.271.271 0 0 1 .102-.36.271.271 0 0 1 .36.103c1.488 2.515 8.726 7.546 10.985 7.7.205 0 .36 0 .41-.103.052-.051 5.288-8.264 5.493-12.628 0-.154.103-.256.257-.256.154 0 .257.102.257.256-.206 4.466-5.39 12.526-5.596 12.885-.205.257-.41.359-.77.359z" fill="#060405"/>
        <path d="M56.467 84.63s-1.694 1.95-.36 4.004c.976 1.54 2.003 4.825.309 5.75-2.772 1.437-8.214-5.134-8.214-5.134l-.205-14.527 8.47 9.907z" fill="#fff"/>
        <path d="M55.542 94.794c-3.028 0-7.597-5.698-7.802-5.955l-.052-.051V74.055l9.138 10.626-.154.154c-.051.052-1.54 1.848-.36 3.696.668 1.027 1.54 3.234 1.13 4.826-.154.564-.462 1.026-.975 1.283a2.486 2.486 0 0 1-.925.154zm-7.34-6.211c1.591 2.002 5.955 6.622 8.06 5.544.358-.206.564-.514.718-.924.36-1.335-.41-3.388-1.078-4.415-1.18-1.797-.154-3.593.256-4.107l-7.956-9.24v13.142zm15.657-15.657c-2.721 1.694-5.442.924-5.442.924l-3.131-6.827 2.361-2.259 6.673 1.489c.052-.052 2.26 4.979-.461 6.673z" fill="#060405"/>
        <path d="M48.253 72.823c.154.206 1.438 13.706 9.6 12.782 8.162-.924 6.006-17.71 2.361-21.406-3.645-3.696-11.037-.41-11.037-.41l-2.412 5.852 1.488 3.182z" fill="#fff"/>
        <path d="M57.083 85.913c-4.466 0-7.598-4.414-8.984-12.576-.051-.206-.051-.36-.051-.411l-1.54-3.285 2.515-6.058.103-.051c.308-.154 7.597-3.388 11.293.462 2.72 2.772 4.415 11.858 2.464 17.402-.924 2.67-2.67 4.21-4.98 4.466-.307 0-.564.051-.82.051zM48.51 72.721c.051.051.051.154.102.513 1.438 8.419 4.57 12.628 9.19 12.115 2.155-.257 3.644-1.643 4.568-4.107 1.9-5.236.205-14.22-2.31-16.837-3.234-3.337-9.805-.719-10.626-.36l-2.361 5.647 1.437 3.029z" fill="#060405"/>
        <path d="M55.063 73.75c.312-.013.55-.39.533-.843-.018-.453-.284-.811-.596-.8-.312.013-.55.39-.533.843.018.453.284.811.596.8zM60.4 73.7c.313-.013.551-.39.534-.843-.018-.453-.285-.811-.596-.8-.312.013-.55.39-.533.843.017.454.284.811.596.8zM57.75 78.06l-.308-.411a.987.987 0 0 1 .616-.206h.102c.154 0 .308-.102.308-.154 0-.102-.102-.256-.205-.36-.821-.872-1.18-2.155-.924-3.284l.513.102c-.256.976.052 2.105.77 2.824.206.205.462.462.36.82-.052.309-.308.514-.719.566h-.154c-.154 0-.308.05-.36.102zm-.565 3.9a1.24 1.24 0 0 0-.719-.718 1.199 1.199 0 0 0-1.026 0l-.206-.462c.462-.154.976-.154 1.386.051.462.206.822.565.976 1.027l-.411.103z" fill="#060405"/>
        <path d="M52.206 68.973c-.257 1.232-1.283 6.776-1.848 5.852-1.027-1.694-1.437-4.466-1.489.36.052 1.796-.513 4.517-.513 4.517-1.591 0-6.52-9.65-2.515-12.166-.103-1.54-.36-2.875.051-4.363.41-1.489 1.283-2.875 2.67-3.542 2.207-1.13 4.979-.103 7.391-.77.77-.206 1.489-.616 2.259-.924.77-.308 1.591-.565 2.361-.462.822.102 1.592.667 1.797 1.437.154.719-.154 1.489 0 2.207.257 1.13 1.13.206 2.207.308 1.13.103 1.078-.051 2.105.411 1.13.462 2.31 3.08 2.361 4.26.052 1.233-.616 2.413-1.694 2.978-1.437.77-1.95.36-3.542-.051-1.591-.411-3.388-.77-4.774.051-.718.462-1.283 1.18-2.053 1.54-.873.41-1.848.308-2.72-.103-.77-.308-1.335-.975-2.054-1.54zM71.302 109.27c-.154 0-.257-.103-.257-.257 0-2.31-.103-6.006-.616-6.724-.103-.103-.051-.257.051-.36.103-.102.257-.051.36.052.718 1.078.718 6.416.718 7.032 0 .103-.102.257-.256.257z" fill="#060405"/>
        <path d="M167.602 48.902h-16.221a.22.22 0 0 1-.205-.205.22.22 0 0 1 .205-.205h16.221c.103 0 .206.102.206.205s-.103.205-.206.205z" fill="#76B0F1"/>
        <path d="M248.761 109.938h-.976v-.514h.976c.359 0 .667-.051 1.026-.102l.103.513c-.359.051-.77.103-1.129.103zm-3.029 0h-2.053v-.514h2.053v.514zm-4.107 0h-2.053v-.514h2.053v.514zm-4.106 0h-2.054v-.514h2.054v.514zm-4.107 0h-2.053v-.514h2.053v.514zm-4.107 0h-2.053v-.514h2.053v.514zm-4.106 0h-2.054v-.514h2.054v.514zm-4.107 0h-2.053v-.514h2.053v.514zm-4.107 0h-2.053v-.514h2.053v.514zm-4.106 0h-2.054v-.514h2.054v.514zm-4.107 0h-2.053v-.514h2.053v.514zm43.069-.976-.308-.41c.564-.36.975-.822 1.334-1.386l.411.256a4.564 4.564 0 0 1-1.437 1.54zm2.258-3.49-.513-.103c.051-.308.103-.565.103-.873v-1.129h.513v1.129c0 .308-.051.616-.103.976zm.103-4.158h-.513V99.26h.513v2.054zm0-4.107h-.513v-2.053h.513v2.053zm0-4.107h-.513v-2.053h.513V93.1zm0-4.106h-.513V86.94h.513v2.053zm0-4.107h-.513v-2.053h.513v2.053zm0-4.107h-.513v-2.053h.513v2.053zm0-4.106h-.513V74.62h.513v2.053z" fill="#060405"/>
        <path d="M214.983 57.629v143.014c0 1.438-.256 2.772-.77 4.004-1.591 3.85-5.338 6.52-9.753 6.52h-79.875c-5.852 0-10.574-4.723-10.574-10.524V57.629c0-5.852 4.722-10.523 10.574-10.523h79.875a10.504 10.504 0 0 1 10.523 10.523z" fill="#060405"/>
        <path d="M124.585 206.804a6.2 6.2 0 0 1-6.211-6.212V57.629a6.2 6.2 0 0 1 6.211-6.212h79.875a6.2 6.2 0 0 1 6.211 6.212v142.963a6.2 6.2 0 0 1-6.211 6.212h-79.875z" fill="#fff"/>
        <path d="M175.97 56.243c0 .36-.154.667-.359.872-.206.206-.565.36-.873.36h-16.119a1.271 1.271 0 0 1-.924-2.156c.206-.206.565-.36.873-.36h16.067c.77 0 1.335.565 1.335 1.284zM154.153 57.886a1.642 1.642 0 1 0 .001-3.285 1.642 1.642 0 0 0-.001 3.285z" fill="#060405"/>
        <path d="M186.751 94.383c-.565 8.214-5.749 14.99-12.782 18.018a20.75 20.75 0 0 1-9.907 1.694 21.776 21.776 0 0 1-9.6-3.028 21.29 21.29 0 0 1-10.164-19.66c.822-11.705 10.986-20.534 22.69-19.713 11.755.77 20.584 10.985 19.763 22.69z" fill="#A5D0FA"/>
        <path d="M173.969 112.401a20.753 20.753 0 0 1-9.908 1.694 21.771 21.771 0 0 1-9.599-3.028c2.515-2.67 6.16-4.21 10.061-3.902 3.953.206 7.341 2.259 9.446 5.236z" fill="#EC8936"/>
        <path d="M167.501 107.833c-.052.564-6.16.102-6.16-.411l.256-3.85 6.16.411-.256 3.85z" fill="#fff"/>
        <path d="M155.335 90.841c-.103 1.386.154 2.824 1.026 3.902.668.821 1.592 1.334 2.618 1.694.976.308 2.054.41 3.08.513 3.85.257 7.752.051 11.602-.205.718-.052 1.437-.103 2.002-.514.718-.513.975-1.59.616-2.36-.308-.617-.873-.976-1.438-1.387-1.745-1.13-3.49-2.31-5.236-3.44-1.283-.82-2.566-1.693-4.004-2.104-2.258-.616-4.62-.205-6.93.205-.513.103-1.026.206-1.54.103-.513-.051-.77-.41-.975.154a11.964 11.964 0 0 0-.821 3.44z" fill="#060405"/>
        <path d="M172.532 95.872c-.36 4.979-3.902 9.856-7.803 9.599-3.901-.256-6.725-5.646-6.365-10.626.359-4.98 3.747-7.7 7.648-7.443 3.902.257 6.879 3.49 6.52 8.47z" fill="#fff"/>
        <path d="M169.175 95.12c.039-.566-.272-1.05-.696-1.079-.425-.03-.801.404-.84.97-.04.566.271 1.048.695 1.078.425.03.801-.404.841-.97zM163.268 94.695c.04-.565-.271-1.048-.696-1.078-.424-.03-.8.404-.84.97-.04.566.272 1.048.696 1.078.424.03.801-.404.84-.97zM165.088 102.853c-.051 0-.051 0 0 0-.821 0-1.591-.308-2.207-.77-.257-.205-.308-.616-.103-.924.205-.256.616-.308.924-.102.359.308.873.462 1.335.513.462 0 .975-.154 1.386-.462.308-.205.667-.154.924.103.205.308.154.667-.103.924a3.51 3.51 0 0 1-2.156.718zM156.67 90.687c.821.77 1.95 1.284 3.08 1.335 1.232.051 2.412-.41 3.593-.462 4.158-.308 7.649 3.44 11.807 3.388.924 0 1.899-.257 2.515-.873.667-.616.873-1.642.308-2.361-.513-.667-1.54-.873-1.951-1.591-.41-.77.154-1.694.719-2.362.565-.667 1.232-1.437 1.078-2.31-.154-.77-.924-1.283-1.694-1.488-.77-.206-1.591-.206-2.413-.36-.77-.154-1.591-.564-1.899-1.232-.308-.718 0-1.54.411-2.258.359-.719.821-1.438.718-2.259-.102-.821-.821-1.489-1.642-1.797-.822-.308-1.746-.308-2.618-.205-3.286.308-6.417 1.694-8.778 3.799a13.482 13.482 0 0 0-3.08 3.952c-.668 1.284-1.54 3.132-1.386 4.62.102.924.564 1.797 1.232 2.464zM165.294 100.287c-.103 0-.206 0-.308-.103-.514-.257-.822-.873-.77-1.54 0-.36.102-.667.205-.975l.051-.257c.206-.667.206-1.437.052-2.105-.052-.359.154-.667.513-.77.359-.05.667.154.77.514a5.416 5.416 0 0 1-.103 2.72l-.102.257c-.052.205-.154.462-.154.616 0 .205.051.308.102.36.308.153.411.564.257.872-.051.308-.257.411-.513.411z" fill="#060405"/>
        <path d="M194.81 140.07h-61.138a2.082 2.082 0 0 1-2.105-2.105v-11.704c0-1.18.924-2.104 2.105-2.104h61.138c1.181 0 2.105.924 2.105 2.104v11.704a2.082 2.082 0 0 1-2.105 2.105z" fill="#D2E4FF"/>
        <path d="M184.543 160.552h-43.787a2.082 2.082 0 0 1-2.105-2.105v-9.856c0-1.18.924-2.104 2.105-2.104h43.787c1.181 0 2.105.924 2.105 2.104v9.856c0 1.13-.975 2.105-2.105 2.105zM146.402 132.832l-1.745-.667 1.796-.719a.73.73 0 0 0 .308-.616c0-.103-.051-.205-.102-.359-.154-.257-.36-.36-.616-.36-.154 0-.257.052-.308.103-.052 0-.103.051-1.489 1.181.257-1.797.257-1.848.257-1.9a.66.66 0 0 0-.206-.513.713.713 0 0 0-.975 0 .659.659 0 0 0-.205.513c0 .052 0 .103.256 1.9-1.386-1.13-1.488-1.181-1.488-1.181-.103-.051-.206-.103-.36-.103-.256 0-.462.103-.616.36a.95.95 0 0 0-.102.359c0 .257.102.462.359.616l1.745.667-1.745.668a.63.63 0 0 0-.359.564c0 .154.051.257.102.36.154.256.36.359.616.359.103 0 .206 0 .308-.051.052 0 .103-.052 1.489-1.181-.257 1.797-.257 1.848-.257 1.899 0 .206.052.36.206.514a.659.659 0 0 0 .513.205.659.659 0 0 0 .513-.205.66.66 0 0 0 .206-.514s0-.102-.257-1.899c1.437 1.129 1.489 1.181 1.489 1.181a.653.653 0 0 0 .308.051c.256 0 .462-.103.616-.359a.96.96 0 0 0 .102-.36.534.534 0 0 0-.359-.513zm9.856 0-1.745-.719 1.796-.718a.73.73 0 0 0 .308-.616c0-.103-.051-.206-.102-.36-.154-.256-.36-.359-.616-.359-.154 0-.257.051-.308.103-.052 0-.103.051-1.489 1.18.257-1.796.257-1.848.257-1.899a.66.66 0 0 0-.206-.513.713.713 0 0 0-.975 0 .659.659 0 0 0-.205.513c0 .051 0 .103.256 1.899-1.386-1.129-1.488-1.18-1.488-1.18a.739.739 0 0 0-.36-.103c-.256 0-.462.103-.616.359a.96.96 0 0 0-.102.36c0 .256.102.462.359.616l1.745.667-1.745.667a.632.632 0 0 0-.359.565c0 .154.051.257.102.359.154.257.36.36.616.36.103 0 .206 0 .308-.052.052 0 .103-.051 1.489-1.18-.257 1.796-.257 1.848-.257 1.899a.66.66 0 0 0 .206.513.66.66 0 0 0 .513.206.66.66 0 0 0 .513-.206.66.66 0 0 0 .206-.513s0-.103-.257-1.899c1.437 1.129 1.489 1.18 1.489 1.18a.642.642 0 0 0 .308.052c.256 0 .462-.103.616-.36a.95.95 0 0 0 .102-.359c0-.154-.154-.359-.359-.462zm9.856 0-1.745-.667 1.796-.719a.73.73 0 0 0 .308-.616c0-.103-.051-.205-.102-.359-.154-.257-.36-.36-.616-.36-.154 0-.257.052-.308.103-.052 0-.103.051-1.489 1.181.257-1.797.257-1.848.257-1.9a.66.66 0 0 0-.206-.513.713.713 0 0 0-.975 0 .659.659 0 0 0-.205.513c0 .052 0 .103.256 1.9-1.386-1.13-1.488-1.181-1.488-1.181-.103-.051-.206-.103-.36-.103-.256 0-.462.103-.616.36a.95.95 0 0 0-.102.359c0 .257.102.462.359.616l1.745.667-1.745.668a.63.63 0 0 0-.359.564.75.75 0 0 0 .102.36c.154.256.36.359.616.359.103 0 .206 0 .308-.051.052 0 .103-.052 1.489-1.181-.257 1.797-.257 1.848-.257 1.899 0 .206.052.36.206.514a.659.659 0 0 0 .513.205.659.659 0 0 0 .513-.205.66.66 0 0 0 .206-.514s0-.102-.257-1.899c1.437 1.129 1.489 1.181 1.489 1.181.102.051.205.051.308.051.256 0 .462-.103.616-.359a.96.96 0 0 0 .102-.36c-.051-.205-.154-.41-.359-.513zm9.856 0-1.745-.667 1.796-.719a.73.73 0 0 0 .308-.616c0-.103-.051-.205-.102-.359-.154-.257-.36-.36-.616-.36-.154 0-.257.052-.308.103-.052 0-.103.051-1.489 1.181.257-1.797.257-1.848.257-1.9a.66.66 0 0 0-.206-.513.713.713 0 0 0-.975 0 .659.659 0 0 0-.205.513c0 .052 0 .103.256 1.9-1.386-1.13-1.488-1.181-1.488-1.181-.103-.051-.206-.103-.36-.103-.256 0-.462.103-.616.36a.95.95 0 0 0-.102.359c0 .257.102.462.359.616l1.745.667-1.745.668a.63.63 0 0 0-.359.564.75.75 0 0 0 .102.36c.154.256.36.359.616.359.103 0 .206 0 .308-.051.052 0 .103-.052 1.489-1.181-.257 1.797-.257 1.848-.257 1.899 0 .206.052.36.206.514a.659.659 0 0 0 .513.205.659.659 0 0 0 .513-.205.66.66 0 0 0 .206-.514s0-.102-.257-1.899c1.437 1.129 1.489 1.181 1.489 1.181.102.051.205.051.308.051.256 0 .462-.103.616-.359a.96.96 0 0 0 .102-.36c-.051-.205-.154-.41-.359-.513zm9.805 0-1.746-.667 1.797-.719a.732.732 0 0 0 .308-.616c0-.103-.051-.205-.103-.359-.154-.257-.359-.36-.616-.36a.437.437 0 0 0-.308.103c-.051 0-.102.051-1.488 1.181.256-1.797.256-1.848.256-1.9a.659.659 0 0 0-.205-.513.713.713 0 0 0-.975 0 .66.66 0 0 0-.206.513c0 .052 0 .103.257 1.9-1.386-1.13-1.489-1.181-1.489-1.181-.102-.051-.205-.103-.359-.103-.257 0-.462.103-.616.36a.952.952 0 0 0-.103.359c0 .257.103.462.36.616l1.745.667-1.745.668a.63.63 0 0 0-.36.564c0 .154.052.257.103.36.154.256.359.359.616.359.103 0 .205 0 .308-.051.051 0 .103-.052 1.489-1.181-.257 1.797-.257 1.848-.257 1.899 0 .206.051.36.205.514a.66.66 0 0 0 .514.205.659.659 0 0 0 .513-.205.66.66 0 0 0 .205-.514s0-.102-.256-1.899c1.437 1.129 1.488 1.181 1.488 1.181.103.051.206.051.308.051.257 0 .462-.103.616-.359a.943.943 0 0 0 .103-.36.535.535 0 0 0-.359-.513z" fill="#000"/>
        <path d="M147.069 156.343a.395.395 0 0 1-.102-.257v-4.466c0-.103.051-.154.102-.257.052-.102.154-.102.257-.102h2.875c.102 0 .154.051.205.102a.394.394 0 0 1 .103.206.391.391 0 0 1-.103.205.391.391 0 0 1-.205.103h-2.516v1.642h2.259c.103 0 .154.052.205.103a.384.384 0 0 1 .103.205.387.387 0 0 1-.103.206.39.39 0 0 1-.205.102h-2.259v1.951c0 .103-.051.154-.102.257a.395.395 0 0 1-.257.102.395.395 0 0 1-.257-.102z" fill="#fff"/>
        <path d="M147.326 156.548c-.102 0-.256-.051-.308-.154-.102-.103-.154-.205-.154-.308v-4.466c0-.103.052-.257.154-.308.103-.103.206-.154.308-.154h2.875c.103 0 .205.051.308.154.103.103.154.205.154.308 0 .103-.051.205-.154.308-.103.103-.205.103-.308.103h-2.413v1.386h2.156c.103 0 .206.051.308.154.103.102.154.205.154.308 0 .102-.051.205-.154.308-.102.102-.205.102-.308.102h-2.156v1.848c0 .154-.051.257-.154.308-.102.052-.205.103-.308.103zm-.154-.308c.103.103.206.103.308 0 .052-.051.052-.103.052-.154v-2.105h2.412c.052 0 .103 0 .154-.051.052-.051.052-.051.052-.103 0-.051 0-.102-.052-.154-.051-.051-.102-.051-.154-.051h-2.412v-1.899h2.669c.051 0 .103 0 .154-.052.051-.051.051-.051.051-.102 0-.052 0-.103-.051-.154-.051-.052-.103-.052-.154-.052h-2.875c-.051 0-.102 0-.154.052-.051.051-.051.102-.051.154v4.517c0 .103 0 .103.051.154zm5.596-.103c-.411-.205-.668-.513-.873-.924a3.057 3.057 0 0 1-.308-1.386c0-.513.103-.975.308-1.386.205-.41.513-.718.873-.924.41-.205.821-.359 1.334-.359.514 0 .976.103 1.335.359.411.206.667.514.873.924.205.411.308.873.359 1.386 0 .514-.103.976-.359 1.386a2.178 2.178 0 0 1-.873.924c-.359.206-.821.36-1.335.36-.513 0-.924-.154-1.334-.36zm2.361-.564c.308-.154.513-.411.667-.719.154-.308.206-.667.206-1.027 0-.359-.052-.718-.206-1.026-.154-.308-.359-.565-.667-.719a2.17 2.17 0 0 0-2.053 0c-.308.154-.514.411-.668.719-.154.308-.205.667-.205 1.026 0 .36.051.719.205 1.027.154.308.36.565.668.719a2.17 2.17 0 0 0 1.026.256c.411 0 .77-.051 1.027-.256z" fill="#fff"/>
        <path d="M154.153 156.599c-.513 0-1.026-.102-1.437-.359-.411-.257-.719-.565-.924-.975a3.137 3.137 0 0 1-.359-1.438c0-.513.102-1.026.359-1.437.205-.411.565-.77.924-.975.411-.257.873-.36 1.437-.36.514 0 1.027.103 1.438.36.41.256.718.564.924.975.205.411.359.873.359 1.437 0 .514-.103 1.027-.359 1.438-.206.41-.565.77-.924.975a2.844 2.844 0 0 1-1.438.359zm0-5.287c-.513 0-.924.103-1.283.308a2.374 2.374 0 0 0-.873.873c-.205.359-.308.821-.308 1.334 0 .462.103.924.308 1.284.206.359.462.667.873.872.359.206.821.308 1.283.308.462 0 .924-.102 1.284-.308.359-.205.667-.513.872-.872.206-.36.308-.822.308-1.284 0-.462-.102-.924-.308-1.283-.205-.359-.462-.667-.872-.873-.411-.205-.822-.359-1.284-.359zm0 4.671c-.41 0-.77-.102-1.078-.308-.308-.205-.564-.462-.718-.77a2.385 2.385 0 0 1 0-2.156c.154-.308.41-.564.718-.77a1.902 1.902 0 0 1 1.078-.308 1.9 1.9 0 0 1 1.078.308c.308.206.565.462.719.77a2.388 2.388 0 0 1 0 2.156c-.154.308-.411.565-.719.77a1.892 1.892 0 0 1-1.078.308zm0-4.055c-.359 0-.718.103-.975.257-.257.154-.462.41-.616.667-.154.308-.205.616-.205.975 0 .36.051.668.205.976.154.256.359.513.616.667.257.154.565.257.975.257.36 0 .668-.103.976-.257.256-.154.462-.359.616-.667.154-.308.205-.616.205-.976 0-.359-.051-.667-.205-.975-.154-.257-.36-.513-.616-.667-.308-.154-.616-.257-.976-.257zm4.312 4.415a.395.395 0 0 1-.102-.257v-4.466c0-.103.051-.154.102-.257.052-.102.154-.102.257-.102h1.694c.667 0 1.181.154 1.489.41.308.257.513.616.513 1.078 0 .308-.103.565-.257.822-.154.256-.41.41-.718.513.359.103.616.308.718.667.154.36.206.668.206 1.027v.359c0 .103-.052.154-.103.257a.393.393 0 0 1-.257.103.393.393 0 0 1-.256-.103.388.388 0 0 1-.103-.257v-.205c0-.257 0-.462-.051-.667a1.228 1.228 0 0 0-.308-.565c-.154-.154-.411-.257-.77-.257h-1.54v1.694c0 .103-.052.154-.103.257a.393.393 0 0 1-.257.103c-.102 0-.102-.103-.154-.154zm1.9-2.567c.41 0 .77-.103 1.026-.257.257-.154.36-.41.36-.718s-.103-.514-.308-.668c-.206-.154-.565-.256-1.078-.256h-1.284v1.848h1.284v.051z" fill="#fff"/>
        <path d="M162.059 156.548a.463.463 0 0 1-.359-.154c-.103-.103-.154-.205-.154-.308v-.205c0-.257 0-.462-.052-.668-.051-.205-.154-.359-.256-.513-.154-.154-.36-.205-.668-.205h-1.386v1.591c0 .154-.051.257-.154.308a.54.54 0 0 1-.667 0c-.103-.103-.154-.205-.154-.308v-4.466c0-.103.051-.257.154-.308.103-.103.205-.154.308-.154h1.694c.719 0 1.232.154 1.591.462.36.308.565.719.565 1.181 0 .308-.103.616-.257.872-.102.206-.308.36-.513.462.257.154.411.36.513.616.154.36.206.719.206 1.078v.36c0 .102-.052.256-.154.308-.052 0-.154.051-.257.051zm-3.131-2.259h1.642c.36 0 .668.103.873.308.205.206.308.411.359.616.052.206.052.462.052.719v.205c0 .103.051.103.051.154.051.052.205.103.308 0 .051-.051.051-.102.051-.154v-.359c0-.308-.051-.667-.205-.975-.103-.308-.308-.514-.616-.565l-.411-.103.411-.154c.308-.102.513-.256.667-.462.154-.205.206-.462.206-.718 0-.411-.154-.719-.462-.976-.308-.256-.77-.359-1.438-.359h-1.694c-.051 0-.102 0-.154.051-.051.052-.051.103-.051.154v4.518c0 .051 0 .102.051.154.103.102.206.102.308 0 .052-.052.052-.103.052-.154v-1.9zm1.437-.41h-1.437v-2.105h1.437c.565 0 .924.103 1.181.257a.925.925 0 0 1 .359.77c0 .359-.154.616-.411.821-.308.205-.667.257-1.129.257zm-1.181-.257h1.181c.411 0 .719-.051.924-.205a.733.733 0 0 0 .308-.616c0-.257-.103-.462-.257-.565-.205-.154-.513-.205-1.026-.205h-1.181v1.591h.051zM165.087 156.137a2.018 2.018 0 0 1-.924-.924 3.063 3.063 0 0 1-.308-1.386c0-.513.103-.975.36-1.386.256-.411.513-.719.924-.924.41-.205.821-.308 1.283-.308.359 0 .719.051 1.027.154.308.103.564.205.821.411.051 0 .051.051.103.102.051.052.051.103.051.154 0 .103-.051.154-.103.206a.39.39 0 0 1-.205.102c-.051 0-.103 0-.154-.051a1.938 1.938 0 0 0-.667-.308 3.126 3.126 0 0 0-.77-.103c-.36 0-.719.103-1.027.257-.308.154-.513.411-.719.667a2.388 2.388 0 0 0-.256 1.078c0 .36.102.719.256 1.027.154.308.411.565.668.719.308.154.667.256 1.078.256.462 0 .872-.102 1.283-.308v-1.386h-1.232c-.103 0-.154-.051-.205-.102a.387.387 0 0 1-.103-.206c0-.051.051-.154.103-.205a.391.391 0 0 1 .205-.103h1.437c.103 0 .206.052.257.103a.393.393 0 0 1 .103.257v1.694c0 .102 0 .205-.103.256a.404.404 0 0 1-.205.206c-.565.256-1.13.41-1.694.41-.411 0-.873-.154-1.284-.359z" fill="#fff"/>
        <path d="M166.422 156.599c-.513 0-.975-.102-1.386-.359a2.95 2.95 0 0 1-.975-.975 3.125 3.125 0 0 1-.36-1.438c0-.564.103-1.026.36-1.437.256-.411.564-.77.975-.975.411-.206.873-.36 1.386-.36.411 0 .77.052 1.027.154.308.103.564.257.872.411.052 0 .103.051.154.154.052.051.052.154.052.205 0 .103-.052.206-.103.308a.49.49 0 0 1-.513.103 1.942 1.942 0 0 0-.668-.308 3.043 3.043 0 0 0-.718-.103c-.36 0-.668.052-.924.206-.257.154-.514.359-.668.616-.154.256-.256.616-.256 1.026 0 .36.051.668.205.976.154.256.359.513.667.667.257.154.616.257 1.027.257.411 0 .821-.103 1.181-.257v-1.129h-1.078c-.103 0-.206-.052-.308-.103-.103-.103-.103-.205-.103-.308 0-.103.051-.205.103-.308.102-.103.205-.103.308-.103h1.437c.154 0 .257.052.359.154a.467.467 0 0 1 .154.36v1.694c0 .154-.051.256-.102.359-.052.103-.154.154-.257.205-.667.154-1.232.308-1.848.308zm-1.283-.564c.359.205.821.308 1.283.308.565 0 1.078-.154 1.643-.411.051-.051.102-.051.154-.154.051-.051.051-.103.051-.205v-1.694c0-.052 0-.103-.051-.154-.052-.052-.103-.052-.154-.052h-1.438c-.051 0-.102 0-.102.052-.052.051-.052.051-.052.102 0 .052 0 .103.052.103.051.051.051.051.102.051h1.335v1.54l-.051.052c-.411.205-.873.359-1.335.359a2.61 2.61 0 0 1-1.129-.257c-.308-.205-.565-.462-.719-.77a2.385 2.385 0 0 1-.257-1.078c0-.462.103-.821.257-1.129.205-.308.411-.565.77-.719a2.385 2.385 0 0 1 1.078-.256c.257 0 .565.051.77.102.257.052.462.154.719.308.051.052.154 0 .205-.051.051-.051.051-.051.051-.103v-.102c0-.052-.051-.052-.051-.052-.257-.154-.513-.308-.821-.359-.257-.103-.616-.154-.976-.154-.462 0-.872.103-1.232.308a2.364 2.364 0 0 0-.872.873c-.206.359-.308.821-.308 1.334 0 .462.102.924.308 1.284.154.41.41.718.77.924zM171.196 156.137c-.41-.205-.667-.513-.872-.924a3.044 3.044 0 0 1-.308-1.386c0-.513.102-.975.308-1.386.205-.41.513-.718.872-.924.411-.205.822-.359 1.335-.359s.975.103 1.335.359c.41.206.667.514.872.924.206.411.308.873.36 1.386 0 .514-.103.976-.36 1.386a2.17 2.17 0 0 1-.872.924c-.36.206-.822.36-1.335.36s-.924-.154-1.335-.36zm2.362-.564c.308-.154.513-.411.667-.719.154-.308.205-.667.205-1.027 0-.359-.051-.718-.205-1.026-.154-.308-.359-.565-.667-.719a2.17 2.17 0 0 0-2.054 0c-.308.154-.513.411-.667.719-.154.308-.205.667-.205 1.026 0 .36.051.719.205 1.027.154.308.359.565.667.719a2.17 2.17 0 0 0 1.027.256c.411 0 .77-.051 1.027-.256z" fill="#fff"/>
        <path d="M172.582 156.599c-.513 0-1.027-.102-1.437-.359-.411-.257-.719-.565-.924-.975a3.125 3.125 0 0 1-.36-1.438c0-.513.103-1.026.36-1.437.205-.411.564-.77.924-.975.41-.257.872-.36 1.437-.36.513 0 1.027.103 1.437.36.411.256.719.564.924.975.206.411.36.873.36 1.437 0 .514-.103 1.027-.36 1.438-.205.41-.564.77-.924.975a2.843 2.843 0 0 1-1.437.359zm0-5.287c-.513 0-.924.103-1.283.308-.36.205-.668.513-.873.873-.205.359-.308.821-.308 1.334 0 .462.103.924.308 1.284.205.359.462.667.873.872.359.206.821.308 1.283.308.513 0 .924-.102 1.283-.308.36-.205.668-.513.873-.872.205-.36.308-.822.308-1.284 0-.462-.103-.924-.308-1.283-.205-.359-.462-.667-.873-.873-.41-.205-.821-.359-1.283-.359zm0 4.671c-.411 0-.77-.102-1.078-.308-.308-.205-.565-.462-.719-.77a2.388 2.388 0 0 1 0-2.156c.154-.308.411-.564.719-.77a1.9 1.9 0 0 1 1.078-.308 1.9 1.9 0 0 1 1.078.308c.308.206.565.462.719.77a2.388 2.388 0 0 1 0 2.156c-.154.308-.411.565-.719.77a1.892 1.892 0 0 1-1.078.308zm0-4.055c-.359 0-.719.103-.975.257-.257.154-.462.41-.616.667-.154.308-.206.616-.206.975 0 .36.052.668.206.976.154.256.359.513.616.667.256.154.564.257.975.257.359 0 .667-.103.975-.257.257-.154.462-.359.616-.667.154-.308.206-.616.206-.976 0-.359-.052-.667-.206-.975-.154-.257-.359-.513-.616-.667-.308-.154-.616-.257-.975-.257zM177.869 156.343a.396.396 0 0 1-.103-.257v-4.209h-1.488c-.103 0-.154-.052-.206-.103a.39.39 0 0 1-.102-.205c0-.052.051-.154.102-.206a.392.392 0 0 1 .206-.102h3.644c.103 0 .154.051.206.102a.392.392 0 0 1 .102.206.39.39 0 0 1-.102.205.394.394 0 0 1-.206.103h-1.488v4.209c0 .103-.052.154-.103.257a.393.393 0 0 1-.257.102c-.051 0-.102-.051-.205-.102z" fill="#fff"/>
        <path d="M178.126 156.548c-.103 0-.257-.051-.308-.154-.103-.103-.154-.205-.154-.308v-4.107h-1.386c-.103 0-.205-.051-.308-.102-.103-.103-.103-.206-.103-.308 0-.103.052-.206.103-.308.103-.103.205-.154.308-.154h3.645c.102 0 .205.051.308.154.102.102.154.205.154.308 0 .102-.052.205-.154.308-.103.102-.206.102-.308.102h-1.386v4.107c0 .154-.052.257-.154.308 0 .103-.154.154-.257.154zm-.154-.308c.103.103.205.103.308 0 .051-.051.051-.103.051-.154v-4.363h1.643c.051 0 .103 0 .154-.052.051-.051.051-.051.051-.102 0-.052 0-.103-.051-.154-.051-.052-.103-.052-.154-.052h-3.645c-.051 0-.102 0-.154.052-.051.051-.051.102-.051.154 0 .051 0 .102.051.154.052.051.052.051.154.051h1.643v4.363c-.051.052-.051.052 0 .103z" fill="#fff"/>
        <path d="M155.694 170.357h-29.825v4.209h29.825v-4.209zM165.498 177.441h-39.629v2.104h39.629v-2.104zM136.392 182.42h-10.523v2.105h10.523v-2.105zM154.103 182.42h-12.166v2.105h12.166v-2.105z" fill="#D2E4FF"/>
        <path d="M76.64 65.74a2.67 2.67 0 1 0 0-5.34 2.67 2.67 0 0 0 0 5.34zM84.546 60.247a3.696 3.696 0 1 0 0-7.392 3.696 3.696 0 0 0 0 7.392zM110.52 45.411c0 .154.052.36.052.514a5.061 5.061 0 0 1-5.082 5.082 4.808 4.808 0 0 1-1.9-.36c-.205 2.618-2.412 4.672-5.082 4.672-2.618 0-4.774-2.002-5.03-4.518-.462.154-.976.206-1.489.206a5.06 5.06 0 0 1-5.082-5.082c0-.668.103-1.284.36-1.848a3.428 3.428 0 0 1-1.438-2.824c0-1.745 1.335-3.234 3.029-3.439-.257-.565-.36-1.13-.36-1.797 0-2.361 1.951-4.312 4.312-4.312.206 0 .411 0 .616.052.668-1.951 2.516-3.337 4.723-3.337 2.053 0 3.799 1.232 4.569 3.029a3.476 3.476 0 0 1 2.361-.924 3.495 3.495 0 0 1 3.491 3.49c0 .308-.052.616-.154.924a3.654 3.654 0 0 1 1.232 2.156 5.047 5.047 0 0 1 2.72 4.466 5.32 5.32 0 0 1-1.848 3.85z" fill="#A5D0FA"/>
        <path d="M97.738 45.206a1.045 1.045 0 0 0-.308.77c0 .308.103.565.308.77.205.205.462.308.77.308s.565-.103.77-.308c.205-.206.308-.462.308-.77s-.103-.565-.308-.77c-.36-.462-1.078-.462-1.54 0zm3.439-8.419c-.616-.513-1.488-.77-2.515-.77-.513 0-.975.051-1.386.154-.41.103-.873.308-1.232.565-.41.257-.462.565-.462.77 0 .205.103.41.257.565.308.308.718.308 1.078.102.205-.154.513-.257.77-.308a5.66 5.66 0 0 1 .924-.102c1.591 0 1.796.718 1.796 1.283 0 .205-.051.41-.205.565-.154.205-.41.41-.77.718-.36.308-.616.514-.873.77-.205.257-.41.514-.564.873-.154.36-.257.77-.257 1.232 0 .205.103.41.257.565a.85.85 0 0 0 .616.256 1.1 1.1 0 0 0 .616-.205.824.824 0 0 0 .256-.565c0-.308.103-.616.257-.821.205-.257.513-.514.873-.822.308-.256.564-.462.77-.667.205-.205.41-.462.513-.77.154-.308.205-.667.205-1.078 0-1.026-.308-1.797-.924-2.31z" fill="#000"/>
        <path d="M195.682 130.573a5.698 5.698 0 1 0 0-11.396 5.698 5.698 0 0 0 0 11.396z" fill="#FE6021"/>
        <path d="M196.76 122.155v.102l-.565 3.85c-.051.257-.256.462-.513.462s-.513-.205-.513-.462l-.565-3.85a1.08 1.08 0 1 1 2.156-.102zm-.359 5.749a.702.702 0 0 1-.719.719.702.702 0 0 1-.719-.719c0-.411.308-.719.719-.719.359 0 .719.36.719.719z" fill="#fff"/>
        <path d="M271.451 86.683H231.77c-1.848 0-3.388-1.54-3.388-3.388v-36.19c0-1.848 1.54-3.388 3.388-3.388h39.681c1.848 0 3.388 1.54 3.388 3.388v36.19c0 1.848-1.54 3.388-3.388 3.388z" fill="#76B0F1"/>
        <path d="M270.116 57.629v4.979a1.6 1.6 0 0 1-1.592 1.591h-31.826a1.6 1.6 0 0 1-1.592-1.591v-4.98a1.6 1.6 0 0 1 1.592-1.59h31.826c.924 0 1.592.667 1.592 1.59zM270.116 70.103v8.521a1.6 1.6 0 0 1-1.592 1.591h-31.826a1.6 1.6 0 0 1-1.592-1.591v-8.521a1.6 1.6 0 0 1 1.592-1.592h31.826c.924 0 1.592.719 1.592 1.592z" fill="#000" opacity=".1"/>
        <path d="M267.498 62.967h-31.827a1.6 1.6 0 0 1-1.591-1.591v-4.98a1.6 1.6 0 0 1 1.591-1.59h31.827c.873 0 1.591.718 1.591 1.59v4.98c0 .924-.718 1.591-1.591 1.591zM267.498 79.034h-31.827a1.6 1.6 0 0 1-1.591-1.59v-8.47a1.6 1.6 0 0 1 1.591-1.592h31.827c.873 0 1.591.718 1.591 1.591v8.522c0 .82-.718 1.54-1.591 1.54z" fill="#fff"/>
        <path d="M247.94 70.975a.833.833 0 0 0 .154-.462c0-.256-.103-.462-.308-.667-.206-.154-.514-.257-.873-.257h-.924c-.051 0-.154.052-.205.052-.052.051-.052.102-.052.205v2.464c0 .051 0 .154.052.205a.248.248 0 0 0 .359 0c.051-.051.051-.102.051-.205v-.873h.77c.154 0 .308.052.36.103.102.103.154.154.154.257 0 .102.051.205.051.359v.103c0 .051 0 .154.051.205.052.051.103.051.206.051.051 0 .154 0 .154-.051.051-.051.051-.103.051-.205v-.206c0-.205-.051-.41-.103-.564-.051-.154-.154-.257-.256-.36.102 0 .205-.051.308-.154zm-.411-.462c0 .154-.051.257-.154.308-.103.103-.308.103-.513.103h-.668v-.873h.616c.257 0 .462.052.565.103.154.103.154.205.154.36zm3.131 1.078c.052-.051.052-.102.052-.154 0-.205-.052-.359-.103-.513-.103-.154-.205-.308-.359-.41a1.036 1.036 0 0 0-.565-.155c-.205 0-.411.052-.565.154-.154.103-.256.257-.359.411-.051.154-.103.36-.103.565 0 .359.103.616.308.821.206.205.462.308.822.308.154 0 .308 0 .41-.051l.308-.154c.103-.052.154-.154.154-.206 0-.051 0-.102-.051-.154-.051-.051-.205-.102-.257-.051-.051.051-.154.051-.256.103-.103 0-.154.051-.257.051-.205 0-.359-.051-.462-.154-.103-.103-.154-.205-.154-.308h1.283c.052-.051.103-.051.154-.103zm-1.18-.77a.711.711 0 0 1 .462 0c.051.052.154.103.205.154.051.052.051.154.103.206h-1.027c0-.103.051-.154.103-.206 0-.051.051-.102.154-.154zm3.08.514a.97.97 0 0 0-.411-.103c-.154-.051-.257-.051-.359-.103-.052 0-.052-.051-.052-.102 0-.052.052-.103.103-.154.154-.103.462-.103.77 0 .103.051.154 0 .257-.052.051-.051.051-.102.051-.154 0-.051 0-.102-.051-.154l-.103-.102c-.205-.052-.411-.103-.616-.103-.257 0-.462.051-.616.205a.659.659 0 0 0-.205.514c0 .154.051.256.154.359.102.103.205.154.308.205a.962.962 0 0 0 .41.103c.154.051.257.051.308.103.052.051.052.051.052.102 0 .052 0 .206-.36.206-.102 0-.205 0-.256-.052-.103 0-.154-.051-.257-.102-.103-.052-.205 0-.257.051-.051.051-.051.103-.051.154 0 .103.051.154.103.205.205.103.513.206.77.206.256 0 .462-.052.616-.206.154-.102.205-.308.205-.462 0-.154-.051-.308-.103-.359l-.41-.205zm2.926.256c.051-.051.051-.102.051-.154 0-.205-.051-.359-.103-.513-.102-.154-.205-.308-.359-.41a1.034 1.034 0 0 0-.565-.155c-.205 0-.41.052-.564.154-.154.103-.257.257-.36.411-.051.154-.102.36-.102.565 0 .359.102.616.308.821.205.205.462.308.821.308.154 0 .308 0 .411-.051l.308-.154c.102-.052.154-.154.154-.206 0-.051 0-.102-.052-.154-.051-.051-.205-.102-.256-.051-.052.051-.154.051-.257.103-.103 0-.154.051-.257.051-.205 0-.359-.051-.462-.154-.102-.103-.154-.205-.154-.308h1.284c.051-.051.102-.051.154-.103zm-1.181-.77a.711.711 0 0 1 .462 0c.051.052.154.103.205.154.052.052.052.154.103.206h-1.027c0-.103.052-.154.103-.206 0-.051.051-.102.154-.154zm2.926 1.284c-.154.051-.257.051-.308 0 0 0-.051-.052-.051-.154v-1.13h.41c.052 0 .103 0 .154-.051.052-.051.052-.103.052-.154 0-.051 0-.103-.052-.154-.051-.051-.102-.051-.154-.051h-.41v-.257c0-.051 0-.051-.052-.103-.051-.051-.154-.051-.205 0l-.565.514c-.051.051-.051.051-.051.102 0 .052 0 .103.051.103.052.051.052.051.103.051h.205v1.181c0 .257.103.616.668.616a.956.956 0 0 0 .359-.103c.103-.051.154-.154.154-.205 0-.051 0-.103-.051-.154-.103-.051-.206-.103-.257-.051z" fill="#000"/>
        <path d="M241.934 58.912a1.38 1.38 0 0 1-1.386 1.386 1.38 1.38 0 0 1-1.386-1.386c0-.77.616-1.386 1.386-1.386.77 0 1.386.616 1.386 1.386zm4.825 0a1.38 1.38 0 0 1-1.386 1.386 1.38 1.38 0 0 1-1.386-1.386c0-.77.616-1.386 1.386-1.386.77 0 1.386.616 1.386 1.386zm4.826 0a1.38 1.38 0 0 1-1.386 1.386 1.38 1.38 0 0 1-1.386-1.386c0-.77.616-1.386 1.386-1.386.77 0 1.386.616 1.386 1.386zm4.774 0a1.38 1.38 0 0 1-1.386 1.386 1.38 1.38 0 0 1-1.386-1.386c0-.77.616-1.386 1.386-1.386.77 0 1.386.616 1.386 1.386zm4.825 0a1.38 1.38 0 0 1-1.386 1.386 1.38 1.38 0 0 1-1.386-1.386c0-.77.616-1.386 1.386-1.386.77 0 1.386.616 1.386 1.386z" fill="#BDD6FF"/>
        <path d="M243.474 73.953c-.154-.103-.411-.154-.667-.154h-.924c-.052 0-.154.051-.206.051-.051.051-.051.103-.051.205v2.464c0 .052 0 .154.051.206.052.051.103.051.154.051.052 0 .154 0 .206-.051.051-.052.051-.103.051-.206v-.77h.667c.257 0 .514-.051.668-.154.154-.102.308-.205.359-.359.051-.154.103-.308.103-.462 0-.154-.052-.308-.103-.462 0-.154-.154-.257-.308-.36zm-.051.821a.468.468 0 0 1-.154.36c-.103.102-.257.153-.514.153h-.616v-.975h.616c.257 0 .411.051.514.154.102.051.154.154.154.308zm2.412-.103c-.154-.102-.308-.102-.513-.102-.257 0-.513.051-.719.154-.102.051-.154.102-.154.205 0 .051 0 .103.052.154.051.051.102.051.154.051h.051c.103-.051.205-.051.257-.051h.256c.154 0 .308.051.36.103.051.051.102.154.102.308h-.41c-.308 0-.565.051-.719.205-.154.154-.257.308-.257.513 0 .154.052.257.103.36a.616.616 0 0 0 .257.256.944.944 0 0 0 .359.103c.257 0 .513-.051.667-.205 0 .051.052.102.052.154a.248.248 0 0 0 .359 0c.051-.052.051-.103.051-.206v-1.129a.972.972 0 0 0-.102-.41c.051-.309-.052-.411-.206-.463zm-.616 1.694c-.154 0-.205 0-.256-.051-.052-.051-.052-.103-.052-.205 0-.154.206-.257.514-.257h.359v.257a1.108 1.108 0 0 1-.257.205c-.102 0-.205.051-.308.051zm2.978-.821a.97.97 0 0 0-.411-.103c-.154-.051-.257-.051-.359-.102-.052 0-.052-.052-.052-.103s.052-.103.103-.154c.154-.103.462-.103.77 0 .103.051.154 0 .257-.051.051-.052.051-.103.051-.154 0-.052 0-.103-.051-.154l-.103-.103c-.205-.051-.411-.103-.616-.103-.257 0-.462.052-.616.206a.659.659 0 0 0-.205.513c0 .154.051.257.154.36.102.102.205.153.308.205a.962.962 0 0 0 .41.102c.154.052.257.052.308.103.052.051.052.051.052.103 0 .051 0 .205-.36.205-.102 0-.205 0-.256-.051-.103 0-.154-.052-.257-.103-.103-.051-.205 0-.257.051-.051.052-.051.103-.051.154 0 .103.051.154.103.206.205.102.513.205.77.205.256 0 .462-.051.616-.205.154-.103.205-.308.205-.462 0-.154-.051-.308-.103-.36-.205-.102-.256-.154-.41-.205zm2.258 0a.962.962 0 0 0-.41-.103c-.154-.051-.257-.051-.36-.102-.051 0-.051-.052-.051-.103s.051-.103.103-.154c.154-.103.462-.103.77 0 .102.051.154 0 .256-.051.052-.052.052-.103.052-.154 0-.052 0-.103-.052-.154l-.102-.103c-.206-.051-.411-.103-.616-.103-.257 0-.462.052-.616.206a.66.66 0 0 0-.206.513c0 .154.052.257.154.36.103.102.206.153.308.205a.97.97 0 0 0 .411.102c.154.052.257.052.308.103.051.051.051.051.051.103 0 .051 0 .205-.359.205-.103 0-.205 0-.257-.051-.102 0-.154-.052-.256-.103-.103-.051-.206 0-.257.051-.051.052-.051.103-.051.154 0 .103.051.154.102.206.206.102.514.205.77.205.257 0 .462-.051.616-.205.154-.103.206-.308.206-.462 0-.154-.052-.308-.103-.36l-.411-.205zm3.542-.975-.102.102-.411 1.335-.411-1.283c0-.052-.051-.103-.102-.154-.103-.052-.257-.052-.308 0-.052.051-.103.102-.103.154l-.411 1.283-.41-1.335c0-.051-.052-.102-.103-.102-.103-.052-.257-.052-.308.051-.051.051-.051.103-.051.205v.103l.564 1.694c0 .051.052.103.103.154a.248.248 0 0 0 .359 0c.052-.051.103-.103.103-.154l.359-1.13.36 1.13c0 .051.051.103.102.154.052.051.103.051.206.051.051 0 .154 0 .205-.051.051-.051.103-.103.103-.154l.564-1.694v-.103c0-.051 0-.154-.051-.205 0-.103-.154-.103-.257-.051zm2.516.102a1.037 1.037 0 0 0-.565-.154c-.205 0-.411.052-.565.154a1.549 1.549 0 0 0-.41.411c-.103.154-.154.36-.154.616 0 .257.051.41.154.616.102.154.205.308.41.41.154.103.36.155.565.155.205 0 .411-.052.565-.154a1.55 1.55 0 0 0 .41-.411c.103-.154.154-.36.154-.616 0-.205-.051-.41-.154-.616-.102-.154-.205-.308-.41-.41zm-.257 1.592c-.205.102-.411.102-.565 0a.402.402 0 0 1-.205-.206c-.051-.102-.103-.205-.103-.359s.052-.257.103-.36c.051-.102.154-.153.205-.205.103-.051.206-.051.308-.051a.65.65 0 0 1 .308.051.404.404 0 0 1 .206.206.745.745 0 0 1 .102.359c0 .154-.051.308-.102.36-.103.102-.206.153-.257.205zm2.567-1.746a.824.824 0 0 0-.565.257c0-.051-.051-.103-.051-.154a.249.249 0 0 0-.36 0c-.051.051-.051.103-.051.205v1.746c0 .051 0 .154.051.205.052.051.103.051.154.051.052 0 .154 0 .206-.051.051-.051.051-.103.051-.205V75.39c.051-.103.154-.154.257-.205.102-.052.205-.103.308-.103.051 0 .154 0 .205-.051.051-.052.051-.103.051-.154 0-.052 0-.154-.051-.154-.051-.154-.154-.206-.205-.206zm2.669-.77a.248.248 0 0 0-.359 0c-.052.052-.052.103-.052.206v.821a.985.985 0 0 0-1.129-.051c-.154.102-.308.205-.411.41-.102.154-.154.36-.154.616 0 .206.052.411.154.616.103.154.206.308.411.411a.867.867 0 0 0 .513.154c.257 0 .462-.051.616-.205 0 .051.052.102.052.154a.248.248 0 0 0 .359 0c.051-.052.051-.103.051-.206v-2.618c.052-.205 0-.256-.051-.308zm-.975 2.567c-.206 0-.308-.051-.411-.154-.103-.103-.154-.257-.154-.513 0-.206.051-.36.154-.462a.584.584 0 0 1 .411-.154c.102 0 .205 0 .308.051a.9.9 0 0 1 .256.205v.77a1.122 1.122 0 0 1-.256.206c-.103.051-.206.051-.308.051z" fill="#000"/>
        <path d="M248.659 203.98c-.103-1.437.257-2.926.924-4.158.257-.513.77-1.437 1.335-1.694.513-.257 1.745.667 2.258.873 0-.976 0-1.848.257-2.772 1.386-.822 2.464-1.746 3.388-3.08a21.452 21.452 0 0 1 2.105 5.287c.256.975.41 1.951.205 2.926-.205.924-.77 1.694-1.437 2.361-.668.668-1.489 1.13-2.259 1.643-1.386.873-3.439-.205-4.928-.975-.719-.308-1.129-.411-1.848-.411z" fill="#76B0F1"/>
        <path d="M272.991 167.431c.564 2.002.308 4.209-.308 6.211-.668 2.002-1.694 3.901-3.08 5.493-2.772 3.234-6.468 5.39-9.908 7.648-3.49 2.156-6.878 4.62-9.137 8.008-2.259 3.388-3.593 7.444-3.645 11.55-.308-4.158.822-8.418 3.029-11.96 2.207-3.645 5.749-6.212 9.24-8.419 3.491-2.207 7.084-4.312 9.856-7.289a15.382 15.382 0 0 0 3.183-5.185c.718-1.899 1.078-4.004.77-6.057z" fill="#76B0F1"/>
        <path d="M272.991 167.431s4.055 8.624-.873 15.092l-1.54-.462v1.54s-2.977 1.642-7.392.872v-.513l2.054-1.335 1.899-1.283 2.31-2.721 1.694-2.31 1.181-1.848.924-4.055-.257-2.977zm3.439 30.184s-2.258 1.54-6.108.924c-3.85-.668-11.704-8.727-18.018-6.366l2.31-2.258s9.24-5.134 15.656-2.978c6.417 2.105 6.16 10.678 6.16 10.678z" fill="#76B0F1"/>
        <path opacity=".1" d="M276.43 197.615s-2.258 1.54-6.108.924c-3.85-.668-11.704-8.727-18.018-6.366.256-.154 4.466-2.874 6.622-2.823 3.644.103 5.749 1.899 9.958 5.441 4.21 3.542 7.546 2.824 7.546 2.824z" fill="#000"/>
        <path d="M249.84 184.73s12.679.565 16.067-10.729l-4.517-1.026 4.774-2.721s.41-7.649 2.361-10.215c0 0-26.796 3.234-18.685 24.691zm-4.826 18.531a25.487 25.487 0 0 0-.154-6.262c-.308-2.054-.872-4.107-1.796-5.955a14.156 14.156 0 0 0-3.748-4.928c-1.591-1.335-3.49-2.259-5.544-2.875l1.54.411c.257.051.514.154.77.257l.719.308c.513.205.924.462 1.386.77l.667.41.616.514c1.694 1.334 2.978 3.08 3.902 4.979.924 1.899 1.488 4.004 1.745 6.109.257 2.053.257 4.209-.103 6.262z" fill="#76B0F1"/>
        <path d="M240.754 187.297c-11.55 3.08-11.807-8.419-11.807-8.419 2.464 2.361 6.263 1.335 9.24 3.029 3.08 1.745 2.567 5.39 2.567 5.39zm5.031 15.759c-.103-1.848-.206-3.747-.36-5.595a68.006 68.006 0 0 0-.667-5.544 51.96 51.96 0 0 0-1.078-5.493c-.462-1.797-.975-3.593-1.643-5.339a35.973 35.973 0 0 1 1.9 5.288c.462 1.796.872 3.644 1.129 5.492a66.58 66.58 0 0 1 .565 5.596c.051.924.102 1.848.102 2.772.052.975.052 1.899.052 2.823z" fill="#76B0F1"/>
        <path d="M242.653 182.779c-1.694-4.004-12.217-9.034-14.733-11.652-2.515-2.618-1.796-6.776-1.796-6.776 2.361 2.31 7.854 2.566 14.27 6.827 6.314 4.312 2.259 11.601 2.259 11.601zm.821 17.659s.257-9.086-4.722-10.267c-4.928-1.129-7.136 0-7.136 0l.206 1.438-1.797-1.335s-3.696 1.027-5.133.77c0 0 .821 2.669 5.236 3.696 4.414 1.078 10.369 1.335 13.346 5.698z" fill="#76B0F1"/>
        <path d="M243.166 199.411c.308.667.462 1.437.565 2.207.051.77 0 1.54-.206 2.259l-.051-1.129-.051-1.13-.103-1.129a3.895 3.895 0 0 1-.154-1.078z" fill="#76B0F1"/>
        <path d="M242.653 182.779c-1.694-4.004-12.218-9.034-14.733-11.652-2.515-2.618-1.797-6.776-1.797-6.776s-.102 4.414 3.594 5.441c3.696 1.027 11.806 5.903 12.936 12.987z" fill="#000" opacity=".1"/>
        <path d="M247.222 203.056c-.257-3.747.051-7.495.667-11.191a50.132 50.132 0 0 1 3.08-10.831c.719-1.745 1.54-3.439 2.515-5.031.976-1.642 2.002-3.182 3.183-4.671 2.361-2.926 5.236-5.441 8.367-7.443-1.488 1.129-2.977 2.258-4.312 3.542a8.8 8.8 0 0 0-.975.975l-.975 1.027c-.616.718-1.232 1.386-1.797 2.156a45.065 45.065 0 0 0-3.08 4.62 41.569 41.569 0 0 0-2.464 5.03c-1.437 3.44-2.464 7.033-3.131 10.678a51.218 51.218 0 0 0-.77 5.544 50.923 50.923 0 0 0-.308 5.595z" fill="#76B0F1"/>
        <path d="M253.381 218.148H242.96c-.616 0-1.129-.411-1.232-1.027l-2.72-12.32h18.274l-2.72 12.32c-.052.616-.565 1.027-1.181 1.027z" fill="#fff"/>
        <path d="m254.819 216.403-.154.77c-.154.564-.667 1.026-1.232 1.026h-10.421c-.616 0-1.129-.41-1.232-1.026l-2.72-12.32h1.745l.667 3.08a10.771 10.771 0 0 0 10.524 8.47h2.823z" fill="#76B0F1"/>
        <path d="M253.382 218.405h-10.421a1.542 1.542 0 0 1-1.489-1.181l-2.772-12.628h18.942l-2.772 12.628a1.541 1.541 0 0 1-1.488 1.181zm-14.014-13.347 2.618 12.012c.102.462.513.821.975.821h10.421c.462 0 .872-.359.975-.821l2.618-12.012h-17.607z" fill="#060405"/>
        <path d="M258.618 205.469h-20.893a.602.602 0 0 1-.564-.462l-.616-3.08c-.052-.36.205-.719.564-.719h22.125c.359 0 .667.359.565.719l-.616 3.08a.56.56 0 0 1-.565.462z" fill="#fff"/>
        <path d="M258.618 205.725h-20.893c-.411 0-.77-.308-.821-.667l-.616-3.08a.89.89 0 0 1 .154-.719c.154-.205.41-.308.667-.308h22.125c.256 0 .513.103.667.308.154.206.205.462.154.719l-.616 3.08c-.051.411-.411.667-.821.667zm-21.509-4.26a.395.395 0 0 0-.257.102c-.051.103-.102.154-.051.257l.616 3.08c.051.154.154.257.308.257h20.893c.154 0 .308-.103.308-.257l.616-3.08c0-.103 0-.205-.052-.257-.051-.102-.154-.102-.256-.102h-22.125z" fill="#060405"/>
        <path d="M166.936 210.653h-16.222a.22.22 0 0 1-.205-.205.22.22 0 0 1 .205-.205h16.222a.22.22 0 0 1 .205.205.22.22 0 0 1-.205.205zm0 8.008h-16.222a.22.22 0 0 1-.205-.205.22.22 0 0 1 .205-.205h16.222a.22.22 0 0 1 .205.205.22.22 0 0 1-.205.205zm-2.926-4.004h-22.946c-.103 0-.206-.102-.206-.205s.103-.205.206-.205h22.946a.22.22 0 0 1 .205.205.22.22 0 0 1-.205.205z" fill="#76B0F1"/>
        <path d="M154.103 210.653c-.103 0-.206-.102-.206-.205v-3.439c0-.103.103-.206.206-.206.102 0 .205.103.205.206v3.439c-.051.103-.103.205-.205.205zm5.698 4.004c-.103 0-.206-.102-.206-.205v-4.004c0-.103.103-.205.206-.205a.22.22 0 0 1 .205.205v4.004c-.051.103-.103.205-.205.205zm-4.364 3.85a.22.22 0 0 1-.205-.205v-3.901c0-.103.103-.206.205-.206.103 0 .206.103.206.206v3.901c0 .154-.103.205-.206.205z" fill="#76B0F1"/>
        <path d="M166.936 210.653h-16.222a.22.22 0 0 1-.205-.205.22.22 0 0 1 .205-.205h16.222a.22.22 0 0 1 .205.205.22.22 0 0 1-.205.205zm0 8.008h-16.222a.22.22 0 0 1-.205-.205.22.22 0 0 1 .205-.205h16.222a.22.22 0 0 1 .205.205.22.22 0 0 1-.205.205zm-2.926-4.004h-22.946c-.103 0-.206-.102-.206-.205s.103-.205.206-.205h22.946a.22.22 0 0 1 .205.205.22.22 0 0 1-.205.205z" fill="#76B0F1"/>
        <path d="M154.103 210.653c-.103 0-.206-.102-.206-.205v-3.439c0-.103.103-.206.206-.206.102 0 .205.103.205.206v3.439c-.051.103-.103.205-.205.205zm5.698 4.004c-.103 0-.206-.102-.206-.205v-4.004c0-.103.103-.205.206-.205a.22.22 0 0 1 .205.205v4.004c-.051.103-.103.205-.205.205zm-4.364 3.85a.22.22 0 0 1-.205-.205v-3.901c0-.103.103-.206.205-.206.103 0 .206.103.206.206v3.901c0 .154-.103.205-.206.205z" fill="#76B0F1"/>
    </g>
    <defs>
        <clipPath id="9ckp4a6pla">
            <path fill="#fff" d="M0 0h308v242H0z"/>
        </clipPath>
    </defs>
</svg>
