<svg width="96" height="48" viewBox="0 0 96 48" fill="none" xmlns="http://www.w3.org/2000/svg">
    <path fill-rule="evenodd" clip-rule="evenodd" d="m22.041 19.197-.255.22h-4.153a5.298 5.298 0 0 0-3.027 1.052c-.99-1.25-1.976-2.491-3.052-3.831-.345-.428-.41-.809-.182-1.275a13.982 13.982 0 0 1 1.963-3.093c.627-.76 1.471-1.405 2.306-2.043.196-.15.39-.3.582-.45l1.54 1.95.003.003L23 18.36c-.318.286-.64.563-.959.837zm-18.75 1c-.13 0-.259.003-.386.006l-.025.001h-.001c3.058-.089 6.83.454 9.917 1.979.265-.395.572-.76.918-1.088l-.29-.36-2.31-2.87-.016-.02c-.84-1.044-1.117-1.388-2.35-.986-2.089.68-4.41 1.716-6.177 2.974 1.124 1.397 2.279 2.829 3.431 4.258l.003.004c1.235 1.533 2.47 3.064 3.665 4.549.731-.554 1.46-1.104 2.216-1.603v-.007l.001-.002v-2.096a5.01 5.01 0 0 1 .91-2.752l-.044-.021c-2.888-1.417-6.367-1.976-9.3-1.968h-.03l-.132.001zm22.804-1.994c-1.28-1.717-2.337-3.131-3.413-4.57l-2.88-3.855c-.227.189-.441.366-.67.554l-.001.002-.003.003-.004.003-.457.38c1.012 1.357 1.854 2.484 2.692 3.605.931 1.247 1.859 2.487 3.01 4.03-.29.241-.581.473-.871.701l-.195.155h1.575l1.216-1.008h.001zM9.127 31.778h.001l1.201-.967 1.527-1.23v-1.303h.001v-.01c-.374.277-.741.563-1.109.85-.4.311-.799.622-1.207.921-1.08-1.405-2.023-2.638-2.961-3.864l-.001-.001v-.001l-.002-.002c-.937-1.225-1.868-2.442-2.924-3.816l-1.082.87.005.006-.004.003c1.195 1.557 2.258 2.945 3.321 4.334 1.036 1.354 2.072 2.708 3.233 4.22l2.73-2.196v-.01l-2.73 2.197h.001zm25.635-11.31h2.212v16.275h8.312v1.963H34.762V20.469zm21.879 6.798a5.624 5.624 0 0 0-1.925-1.297c-.75-.312-1.597-.47-2.52-.47-.959 0-1.837.175-2.61.52a6.046 6.046 0 0 0-1.984 1.402 6.244 6.244 0 0 0-1.259 2.047 6.876 6.876 0 0 0-.438 2.438c0 .91.15 1.786.445 2.602a6.739 6.739 0 0 0 1.264 2.163 6.064 6.064 0 0 0 1.99 1.483c.777.367 1.658.552 2.618.552.67 0 1.327-.094 1.951-.281a6.196 6.196 0 0 0 1.718-.814 5.302 5.302 0 0 0 1.337-1.318c.37-.521.635-1.124.79-1.791l.03-.132H56.02l-.027.069c-.618 1.642-1.852 2.44-3.772 2.44a3.395 3.395 0 0 1-1.564-.37 4.196 4.196 0 0 1-1.265-.99 4.81 4.81 0 0 1-.853-1.426 4.792 4.792 0 0 1-.321-1.552h10.067v-.845c0-.878-.144-1.706-.426-2.461a5.715 5.715 0 0 0-1.22-1.969zm-4.91.12c.625 0 1.192.101 1.687.3.491.2.92.476 1.27.824.349.346.622.761.812 1.234.177.44.281.916.31 1.416h-8.048c.022-.465.127-.918.316-1.347a4.085 4.085 0 0 1 2.095-2.107c.475-.213 1-.32 1.558-.32zm26.52-1.886c.153 0 .324.013.508.039.188.026.356.066.501.118l.073.026v2.157l-.142-.046c-.432-.138-.767-.208-.994-.208-.538 0-1.02.091-1.434.273a3.276 3.276 0 0 0-1.062.727 3.09 3.09 0 0 0-.662 1.054c-.153.4-.23.823-.23 1.26v7.806h-2.285V25.725h2.29l-.072 1.674c.395-.562.854-1.007 1.364-1.325.611-.381 1.333-.574 2.145-.574zm13.18 2.293a3.343 3.343 0 0 0-.832-1.243 3.692 3.692 0 0 0-1.326-.782c-.512-.178-1.104-.268-1.756-.268-.869 0-1.73.173-2.56.515-.764.314-1.486.813-2.15 1.485v-1.775h-2.236v12.981h2.236v-7.782c0-.447.112-.887.33-1.309.22-.424.53-.805.92-1.133a4.79 4.79 0 0 1 3.072-1.097c.372 0 .713.04 1.013.121.291.08.541.209.742.385.2.176.355.41.46.696.107.291.16.651.16 1.07v9.049h2.21v-9.274a4.555 4.555 0 0 0-.284-1.639zM70.666 38.46h-2.252c-.192-.37-.572-1.223-.485-2.01a7.513 7.513 0 0 1-1.114 1.073c-.42.32-.845.57-1.26.746a5.08 5.08 0 0 1-1.27.351 9.674 9.674 0 0 1-1.293.087c-.564 0-1.101-.085-1.594-.251a3.876 3.876 0 0 1-1.299-.727 3.477 3.477 0 0 1-.874-1.15 3.449 3.449 0 0 1-.321-1.498c0-.552.132-1.034.395-1.431a3.52 3.52 0 0 1 1.03-1.01c.419-.273.902-.508 1.438-.7.532-.189 1.077-.358 1.623-.506.54-.146 1.083-.287 1.617-.419.522-.13.994-.277 1.403-.439.403-.16.729-.345.97-.554a.9.9 0 0 0 .34-.712c0-.693-.264-1.18-.806-1.487-.556-.314-1.345-.473-2.347-.473-.387 0-.762.037-1.11.109a3.125 3.125 0 0 0-.918.333c-.26.149-.48.342-.656.575a1.827 1.827 0 0 0-.337.837l-.014.09h-2.279l.007-.113c.036-.633.226-1.19.563-1.657.334-.46.76-.847 1.27-1.148a5.907 5.907 0 0 1 1.69-.663 8.721 8.721 0 0 1 3.792-.007 5.484 5.484 0 0 1 1.699.658c.497.303.901.702 1.2 1.186.3.486.454 1.078.454 1.76v6.086c.028.56.163 1.723.737 3.064zM65.471 36.1c.784-.473 1.49-1.213 2.1-2.2V31.16a3.666 3.666 0 0 1-.96.57c-.46.191-.958.365-1.48.516-.524.152-1.055.299-1.578.435a8.767 8.767 0 0 0-1.416.494c-.412.188-.75.42-1.007.685-.248.257-.37.57-.37.957 0 .36.066.667.192.913.128.249.3.456.512.618.214.164.46.285.731.36.275.074.556.112.837.112.828 0 1.649-.241 2.44-.718zm-36.468-8.016c-.538-.465-1.277-.699-2.218-.699-.748 0-1.397.1-1.943.3-.548.2-1.004.481-1.368.847a3.554 3.554 0 0 0-.821 1.284 4.575 4.575 0 0 0-.273 1.608v7.281h7.428v-8.727c0-.798-.268-1.43-.806-1.894zM17.03 21.098h15.874v17.608h-.994v-8.378c0-.69-.08-1.318-.237-1.884a3.437 3.437 0 0 0-.82-1.467c-.389-.41-.899-.73-1.528-.961-.63-.23-1.417-.345-2.362-.345-2.13 0-3.687.773-4.669 2.316h-.055v-2.02h-2.224v12.739h-6.92V25.049a3.944 3.944 0 0 1 3.935-3.951z" fill="#2065D1"/>
    <path d="M90.867 17.778c-.449 0-.893.09-1.308.265a3.415 3.415 0 0 0-1.109.755c-.317.323-.569.707-.74 1.129a3.537 3.537 0 0 0 .74 3.794c.318.323.694.58 1.11.754a3.365 3.365 0 0 0 3.724-.754 3.514 3.514 0 0 0 1.001-2.462c0-.923-.36-1.809-1-2.462a3.387 3.387 0 0 0-2.418-1.02zm0 .86c.338 0 .673.067.985.199.313.131.596.325.835.568.24.243.43.533.559.85a2.663 2.663 0 0 1-.558 2.858c-.24.244-.523.437-.836.568a2.535 2.535 0 0 1-2.805-.568 2.647 2.647 0 0 1-.754-1.854c0-.695.271-1.362.754-1.854a2.55 2.55 0 0 1 1.82-.768z" fill="#2065D1"/>
    <path d="M90.682 20.983c.186 0 .321-.038.403-.11.081-.069.125-.187.125-.351 0-.163-.044-.277-.125-.348-.08-.07-.217-.104-.403-.104h-.38v.913h.38zm-.38.631v1.345h-.9v-3.555h1.374c.461 0 .796.08 1.01.238.217.155.321.403.321.745 0 .235-.054.427-.165.579a.958.958 0 0 1-.505.331.69.69 0 0 1 .332.197c.098.1.197.251.294.459l.491 1.006h-.958l-.427-.882c-.084-.176-.173-.3-.261-.363a.579.579 0 0 0-.352-.1h-.254z" fill="#2065D1"/>
</svg>
